<svg style="display:none" xmlns="http://www.w3.org/2000/svg"
    xmlns:xlink="http://www.w3.org/1999/xlink" version="1.1">
    <symbol id="ChevronUp" xmlns="http://www.w3.org/2000/svg" viewBox="0 0 25 24"
        fill="currentColor">
        <path fill-rule="evenodd" clip-rule="evenodd"
            d="M11.7929 8.29289C12.1834 7.90237 12.8166 7.90237 13.2071 8.29289L19.2071 14.2929C19.5976 14.6834 19.5976 15.3166 19.2071 15.7071C18.8166 16.0976 18.1834 16.0976 17.7929 15.7071L12.5 10.4142L7.20711 15.7071C6.81658 16.0976 6.18342 16.0976 5.79289 15.7071C5.40237 15.3166 5.40237 14.6834 5.79289 14.2929L11.7929 8.29289Z" />
    </symbol>
    <symbol id="ChevronTop" xmlns="http://www.w3.org/2000/svg" width="16" height="17"
        viewBox="0 0 16 17" fill="none">
        <g id="Icons">
            <path id="Vector" d="M13.3333 10.8421L7.99999 5.50879L2.66666 10.8421"
                stroke="currentColor" stroke-width="1.5" stroke-linecap="round"
                stroke-linejoin="round" />
        </g>
    </symbol>
    <symbol id="Padlock" xmlns="http://www.w3.org/2000/svg" width="25" height="25"
        viewBox="0 0 25 25" fill="none">
        <g id="Icons">
            <g id="Vector">
                <path
                    d="M17.4024 10.5562H7.78437C7.31748 10.5562 6.85059 10.9372 6.85059 11.5086V19.2229C6.85059 19.6991 7.2241 20.1753 7.78437 20.1753H17.309C17.7759 20.1753 18.2428 19.7943 18.2428 19.2229V11.5086C18.2428 10.9372 17.8693 10.5562 17.4024 10.5562ZM13.4381 17.4134H12.2432V14.7467H13.4381V17.4134Z"
                    fill="#393939" />
                <path
                    d="M17.4024 10.5562L7.69102 10.5613V9.22291C7.69102 6.46101 9.83872 4.17529 12.5467 4.17529C15.2547 4.17529 17.4024 6.46101 17.4024 9.22291L17.4024 10.5562ZM9.09169 10.1753H16.0951V9.22291C16.0951 7.22291 14.5076 5.60386 12.6401 5.60386C10.7725 5.60386 9.09169 7.22291 9.09169 9.22291V10.1753Z"
                    fill="#393939" />
            </g>
        </g>
    </symbol>
    <symbol id="ChevronTop" xmlns="http://www.w3.org/2000/svg" width="16" height="17"
        viewBox="0 0 16 17" fill="none">
        <g id="Icons">
            <path id="Vector" d="M13.3333 10.8421L7.99999 5.50879L2.66666 10.8421"
                stroke="currentColor" stroke-width="1.5" stroke-linecap="round"
                stroke-linejoin="round" />
        </g>
    </symbol>
    <symbol fill="none" viewBox="0 0 24 24" id="CvlbCross" xmlns="http://www.w3.org/2000/svg">
        <path d="m9.6 9.6 4.8 4.8m0-4.8-4.8 4.8M20 12a8 8 0 1 1-16 0 8 8 0 0 1 16 0Z"
            stroke="currentColor" stroke-width="1.5" stroke-linecap="round" stroke-linejoin="round" />
    </symbol>
    <symbol id="User" xmlns="http://www.w3.org/2000/svg" width="32" height="32" viewBox="0 0 32 32"
        fill="none">
        <path
            d="M24.9524 26.6667V24.2963C24.9524 23.039 24.4708 21.8331 23.6135 20.9441C22.7562 20.055 21.5934 19.5556 20.381 19.5556H11.2381C10.0257 19.5556 8.86294 20.055 8.00563 20.9441C7.14832 21.8331 6.66669 23.039 6.66669 24.2963V26.6667M20.381 10.0741C20.381 12.6923 18.3343 14.8148 15.8095 14.8148C13.2848 14.8148 11.2381 12.6923 11.2381 10.0741C11.2381 7.45583 13.2848 5.33333 15.8095 5.33333C18.3343 5.33333 20.381 7.45583 20.381 10.0741Z"
            stroke="currentColor" stroke-width="1.5" stroke-linecap="round" stroke-linejoin="round" />
    </symbol>
    <symbol id="Cart" xmlns="http://www.w3.org/2000/svg" width="32" height="32" viewBox="0 0 32 32"
        fill="none">
        <g clip-path="url(#clip0_11555_348)">
            <path
                d="M13.3333 24.8889C13.8242 24.8889 14.2222 24.4909 14.2222 24C14.2222 23.5091 13.8242 23.1111 13.3333 23.1111C12.8424 23.1111 12.4444 23.5091 12.4444 24C12.4444 24.4909 12.8424 24.8889 13.3333 24.8889Z"
                stroke="currentColor" stroke-width="2" stroke-linecap="round"
                stroke-linejoin="round" />
            <path
                d="M23.1111 24.8889C23.602 24.8889 24 24.4909 24 24C24 23.5091 23.602 23.1111 23.1111 23.1111C22.6202 23.1111 22.2222 23.5091 22.2222 24C22.2222 24.4909 22.6202 24.8889 23.1111 24.8889Z"
                stroke="currentColor" stroke-width="2" stroke-linecap="round"
                stroke-linejoin="round" />
            <path
                d="M6.22223 6.22221H9.77778L12.16 18.1244C12.2413 18.5337 12.4639 18.9013 12.7889 19.1629C13.1139 19.4246 13.5206 19.5635 13.9378 19.5555H22.5778C22.9949 19.5635 23.4016 19.4246 23.7266 19.1629C24.0516 18.9013 24.2743 18.5337 24.3556 18.1244L25.7778 10.6667H10.6667"
                stroke="currentColor" stroke-width="1.5" stroke-linecap="round"
                stroke-linejoin="round" />
        </g>
        <defs>
            <clipPath id="clip0_11555_348">
                <rect width="21.3333" height="21.3333" fill="white"
                    transform="translate(5.33331 5.33333)" />
            </clipPath>
        </defs>
    </symbol>
    <symbol fill="none" viewBox="0 0 24 24" id="ArrowAccordion"
        xmlns="http://www.w3.org/2000/svg">
        <path d="m8 20 8-8-8-8" stroke="currentColor" stroke-width="1.5" stroke-linecap="round"
            stroke-linejoin="round" />
    </symbol>
    <symbol fill="none" viewBox="0 0 24 24" id="ArrowBack" xmlns="http://www.w3.org/2000/svg">
        <path d="m16 20-8-8 8-8" stroke="#393939" stroke-width="1.5" stroke-linecap="round"
            stroke-linejoin="round" />
    </symbol>
    <symbol fill="none" viewBox="0 0 134 44" id="AppleStoreImg" xmlns="http://www.w3.org/2000/svg">
        <rect x="1.104" y=".5" width="132.396" height="43" rx="7.5" fill="#fff" />
        <rect x="1.104" y=".5" width="132.396" height="43" rx="7.5" stroke="#DDD" />
        <g clip-path="url(#aa)">
            <path
                d="M40.762 18.08c-.11.07-2.732 1.52-2.732 4.734.124 3.667 3.309 4.952 3.363 4.952-.054.07-.48 1.752-1.743 3.516-1.002 1.52-2.114 3.052-3.803 3.052-1.606 0-2.183-1.013-4.036-1.013-1.99 0-2.554 1.013-4.078 1.013-1.689 0-2.883-1.615-3.94-3.12-1.372-1.97-2.539-5.062-2.58-8.03-.028-1.574.275-3.12 1.043-4.433 1.084-1.834 3.02-3.079 5.134-3.12 1.62-.054 3.062 1.108 4.05 1.108.947 0 2.718-1.108 4.722-1.108.865.001 3.172.26 4.6 2.45Zm-9.459-2.763c-.288-1.437.508-2.873 1.25-3.79.947-1.108 2.443-1.86 3.733-1.86a5.346 5.346 0 0 1-1.373 3.872c-.837 1.108-2.278 1.942-3.61 1.778Z"
                fill="#393939" />
        </g>
        <path
            d="M58.352 12.204c0 .644-.102 1.23-.306 1.758-.204.528-.492.98-.864 1.356-.372.376-.82.668-1.344.876a4.694 4.694 0 0 1-1.728.306H50.9V7.902h3.21c.632 0 1.208.104 1.728.312.524.204.972.496 1.344.876.372.376.66.828.864 1.356.204.528.306 1.114.306 1.758Zm-1.194 0c0-.528-.072-1-.216-1.416a2.984 2.984 0 0 0-.612-1.056 2.61 2.61 0 0 0-.96-.66 3.335 3.335 0 0 0-1.26-.228h-2.046v6.714h2.046c.464 0 .884-.076 1.26-.228.376-.152.696-.37.96-.654.264-.288.468-.64.612-1.056.144-.416.216-.888.216-1.416Zm3.63-1.782V16.5H59.72v-6.078h1.068Zm.228-1.908a.673.673 0 0 1-.066.294.815.815 0 0 1-.168.24.753.753 0 0 1-.246.162.73.73 0 0 1-.294.06.73.73 0 0 1-.528-.222.875.875 0 0 1-.162-.24.73.73 0 0 1-.06-.294.73.73 0 0 1 .06-.294.753.753 0 0 1 .162-.246.742.742 0 0 1 .234-.168.73.73 0 0 1 .294-.06.73.73 0 0 1 .294.06c.096.04.178.096.246.168.072.068.128.15.168.246.044.092.066.19.066.294Zm5.067 2.91a.237.237 0 0 1-.222.132.418.418 0 0 1-.204-.066 3.59 3.59 0 0 0-.282-.144 2.152 2.152 0 0 0-.39-.15 1.802 1.802 0 0 0-.54-.072c-.18 0-.342.024-.486.072a1.16 1.16 0 0 0-.372.186.875.875 0 0 0-.234.282.754.754 0 0 0-.078.342c0 .156.044.286.132.39.092.104.212.194.36.27.148.076.316.144.504.204.188.056.38.118.576.186.2.064.394.136.582.216.188.08.356.18.504.3a1.329 1.329 0 0 1 .492 1.068c0 .28-.05.54-.15.78a1.73 1.73 0 0 1-.444.618 2.17 2.17 0 0 1-.72.408c-.284.1-.612.15-.984.15a3.11 3.11 0 0 1-1.152-.204 2.966 2.966 0 0 1-.876-.534l.252-.408a.366.366 0 0 1 .114-.12.308.308 0 0 1 .168-.042c.072 0 .148.028.228.084.08.056.176.118.288.186a1.915 1.915 0 0 0 1.032.27c.208 0 .39-.026.546-.078.156-.056.286-.13.39-.222a.837.837 0 0 0 .228-.318.955.955 0 0 0 .078-.384.616.616 0 0 0-.138-.414 1.052 1.052 0 0 0-.354-.282 2.606 2.606 0 0 0-.51-.204l-.582-.186a7.84 7.84 0 0 1-.582-.216 2.137 2.137 0 0 1-.504-.312 1.445 1.445 0 0 1-.36-.456 1.533 1.533 0 0 1-.132-.666c0-.232.048-.454.144-.666.096-.216.236-.404.42-.564.184-.164.41-.294.678-.39.268-.096.574-.144.918-.144.4 0 .758.064 1.074.192.32.124.596.296.828.516l-.24.39Zm2.725 3.612c.196.264.41.45.642.558.232.108.492.162.78.162.568 0 1.004-.202 1.308-.606.304-.404.456-.98.456-1.728 0-.396-.036-.736-.108-1.02a1.926 1.926 0 0 0-.3-.696 1.171 1.171 0 0 0-.486-.402 1.616 1.616 0 0 0-.654-.126c-.348 0-.654.08-.918.24-.26.16-.5.386-.72.678v2.94Zm-.054-3.672c.256-.316.552-.57.888-.762a2.28 2.28 0 0 1 1.152-.288c.352 0 .67.068.954.204.284.132.526.33.726.594.2.26.354.584.462.972.108.388.162.834.162 1.338 0 .448-.06.866-.18 1.254-.12.384-.294.718-.522 1.002-.224.28-.5.502-.828.666-.324.16-.69.24-1.098.24-.372 0-.692-.062-.96-.186a2.301 2.301 0 0 1-.702-.528v2.688h-1.074v-8.136h.642c.152 0 .246.074.282.222l.096.72Zm8.269-1.038a3.1 3.1 0 0 1 1.2.222c.356.148.66.358.912.63s.444.602.576.99c.136.384.204.814.204 1.29 0 .48-.068.912-.204 1.296a2.735 2.735 0 0 1-.576.984 2.572 2.572 0 0 1-.912.63 3.175 3.175 0 0 1-1.2.216c-.448 0-.852-.072-1.212-.216a2.572 2.572 0 0 1-.912-.63 2.805 2.805 0 0 1-.582-.984 3.972 3.972 0 0 1-.198-1.296c0-.476.066-.906.198-1.29.136-.388.33-.718.582-.99.252-.272.556-.482.912-.63.36-.148.764-.222 1.212-.222Zm0 5.424c.6 0 1.048-.2 1.344-.6.296-.404.444-.966.444-1.686 0-.724-.148-1.288-.444-1.692-.296-.404-.744-.606-1.344-.606-.304 0-.57.052-.798.156a1.507 1.507 0 0 0-.564.45c-.148.196-.26.438-.336.726a3.941 3.941 0 0 0-.108.966c0 .72.148 1.282.444 1.686.3.4.754.6 1.362.6Zm5.254-4.446c.132-.148.272-.282.42-.402.148-.12.304-.222.468-.306a2.443 2.443 0 0 1 1.134-.27c.332 0 .624.056.876.168.256.108.468.264.636.468.172.2.302.442.39.726.088.284.132.598.132.942v3.87H85.26v-3.87c0-.46-.106-.816-.318-1.068-.208-.256-.526-.384-.954-.384-.316 0-.612.076-.888.228a2.936 2.936 0 0 0-.756.618V16.5H81.27v-6.078h.642c.152 0 .246.074.282.222l.084.66Zm6.818-.882V16.5H88.02v-6.078h1.074Zm1.236-2.616-1.398 1.548a.607.607 0 0 1-.168.132.49.49 0 0 1-.204.036h-.636l.888-1.452a.586.586 0 0 1 .18-.198.543.543 0 0 1 .294-.066h1.044Zm5.72 2.616L93.575 16.5h-.96l-2.478-6.078h.87a.33.33 0 0 1 .33.222l1.542 3.912c.048.148.09.292.126.432.036.14.07.28.102.42.032-.14.066-.28.102-.42.036-.14.08-.284.132-.432l1.56-3.912a.33.33 0 0 1 .12-.156.311.311 0 0 1 .198-.066h.834Zm4.884 2.376c0-.248-.036-.474-.108-.678a1.437 1.437 0 0 0-.306-.534 1.292 1.292 0 0 0-.486-.348 1.616 1.616 0 0 0-.654-.126c-.512 0-.918.15-1.218.45-.296.296-.48.708-.552 1.236h3.324Zm.864 2.85c-.132.16-.29.3-.474.42a3.022 3.022 0 0 1-.594.288 3.503 3.503 0 0 1-.648.168c-.224.04-.446.06-.666.06-.42 0-.808-.07-1.164-.21a2.636 2.636 0 0 1-.918-.624 2.919 2.919 0 0 1-.6-1.02 4.135 4.135 0 0 1-.216-1.392c0-.424.064-.82.192-1.188.132-.368.32-.686.564-.954.244-.272.542-.484.894-.636a2.902 2.902 0 0 1 1.188-.234c.364 0 .7.062 1.008.186.312.12.58.296.804.528.228.228.406.512.534.852.128.336.192.72.192 1.152 0 .168-.018.28-.054.336-.036.056-.104.084-.204.084h-4.062c.012.384.064.718.156 1.002.096.284.228.522.396.714.168.188.368.33.6.426a2.1 2.1 0 0 0 .78.138c.268 0 .498-.03.69-.09a3.456 3.456 0 0 0 .852-.402.47.47 0 0 1 .246-.096c.088 0 .156.034.204.102l.3.39Zm2.512-7.986V16.5h-1.068V7.662h1.068Zm5.81 3.642c.132-.148.272-.282.42-.402.148-.12.304-.222.468-.306a2.443 2.443 0 0 1 1.134-.27c.332 0 .624.056.876.168.256.108.468.264.636.468.172.2.302.442.39.726.088.284.132.598.132.942v3.87h-1.074v-3.87c0-.46-.106-.816-.318-1.068-.208-.256-.526-.384-.954-.384-.316 0-.612.076-.888.228a2.936 2.936 0 0 0-.756.618V16.5h-1.074v-6.078h.642c.152 0 .246.074.282.222l.084.66Zm8.977 2.46a8.645 8.645 0 0 0-1.26.12c-.344.06-.626.14-.846.24-.216.1-.374.218-.474.354a.772.772 0 0 0-.144.456c0 .16.026.298.078.414a.814.814 0 0 0 .21.288.956.956 0 0 0 .318.162c.124.032.256.048.396.048.188 0 .36-.018.516-.054.156-.04.302-.096.438-.168.14-.072.272-.158.396-.258.128-.1.252-.214.372-.342v-1.26Zm-3.45-2.484a3.47 3.47 0 0 1 1.086-.726c.388-.16.818-.24 1.29-.24.34 0 .642.056.906.168.264.112.486.268.666.468.18.2.316.442.408.726.092.284.138.596.138.936V16.5h-.474a.49.49 0 0 1-.24-.048c-.056-.036-.1-.104-.132-.204l-.12-.576c-.16.148-.316.28-.468.396a2.935 2.935 0 0 1-.48.288 2.585 2.585 0 0 1-.54.174 2.77 2.77 0 0 1-.63.066c-.236 0-.458-.032-.666-.096a1.61 1.61 0 0 1-.546-.3 1.453 1.453 0 0 1-.366-.498 1.807 1.807 0 0 1-.132-.72c0-.24.066-.47.198-.69.132-.224.346-.422.642-.594.296-.172.682-.312 1.158-.42.476-.112 1.06-.176 1.752-.192v-.474c0-.472-.102-.828-.306-1.068-.204-.244-.502-.366-.894-.366-.264 0-.486.034-.666.102-.176.064-.33.138-.462.222-.128.08-.24.154-.336.222a.48.48 0 0 1-.276.096.319.319 0 0 1-.186-.054.567.567 0 0 1-.132-.144l-.192-.342ZM56.277 31.678l-1.232-3.367a7.433 7.433 0 0 1-.189-.532c-.065-.205-.13-.427-.196-.665-.06.238-.123.462-.189.672a8.573 8.573 0 0 1-.189.539l-1.225 3.353h3.22Zm3.325 3.822h-1.456a.634.634 0 0 1-.399-.119.792.792 0 0 1-.23-.308l-.757-2.065h-4.193l-.756 2.065a.67.67 0 0 1-.217.294.605.605 0 0 1-.399.133h-1.47l3.983-10.122h1.918L59.602 35.5Zm2.49-1.862c.196.238.409.406.637.504.234.098.486.147.756.147.262 0 .497-.049.707-.147.21-.098.388-.247.532-.448.15-.2.264-.453.343-.756.08-.308.12-.67.12-1.085a4.6 4.6 0 0 0-.106-1.064 2.02 2.02 0 0 0-.287-.714 1.141 1.141 0 0 0-.462-.399 1.407 1.407 0 0 0-.609-.126c-.36 0-.665.077-.917.231-.252.15-.49.362-.714.637v3.22Zm-.09-4.34c.293-.331.627-.6 1-.805.374-.205.812-.308 1.316-.308.392 0 .75.082 1.071.245.327.163.607.401.84.714.238.308.42.69.546 1.148.13.453.196.973.196 1.561 0 .537-.072 1.034-.217 1.491a3.613 3.613 0 0 1-.623 1.19c-.266.336-.59.6-.973.791-.378.187-.802.28-1.274.28-.401 0-.744-.06-1.029-.182a2.568 2.568 0 0 1-.763-.518v2.94h-1.729v-9.527h1.057c.224 0 .371.105.441.315l.14.665Zm8.047 4.34c.196.238.409.406.637.504.234.098.486.147.756.147.262 0 .497-.049.707-.147.21-.098.388-.247.532-.448.15-.2.264-.453.343-.756.08-.308.12-.67.12-1.085a4.6 4.6 0 0 0-.106-1.064 2.018 2.018 0 0 0-.287-.714 1.141 1.141 0 0 0-.462-.399 1.406 1.406 0 0 0-.609-.126c-.359 0-.665.077-.917.231-.252.15-.49.362-.714.637v3.22Zm-.09-4.34c.293-.331.627-.6 1-.805.374-.205.812-.308 1.316-.308.392 0 .75.082 1.071.245.327.163.607.401.84.714.238.308.42.69.546 1.148.131.453.196.973.196 1.561 0 .537-.072 1.034-.217 1.491a3.611 3.611 0 0 1-.623 1.19c-.266.336-.59.6-.973.791-.378.187-.802.28-1.274.28-.401 0-.744-.06-1.029-.182a2.568 2.568 0 0 1-.763-.518v2.94H68.32v-9.527h1.057c.224 0 .371.105.441.315l.14.665Zm15.386-2.079a.668.668 0 0 1-.182.217.396.396 0 0 1-.231.063.636.636 0 0 1-.322-.105 6.141 6.141 0 0 0-.406-.245 3.15 3.15 0 0 0-.56-.238 2.24 2.24 0 0 0-.75-.112c-.26 0-.49.033-.685.098-.196.06-.362.147-.497.259a1.06 1.06 0 0 0-.294.406 1.296 1.296 0 0 0-.098.511c0 .238.065.436.196.595.135.159.312.294.532.406.219.112.469.212.749.301s.567.184.86.287c.295.098.582.215.862.35.28.13.53.299.749.504.219.2.394.448.525.742.135.294.203.651.203 1.071 0 .457-.08.887-.238 1.288a2.94 2.94 0 0 1-.686 1.043 3.263 3.263 0 0 1-1.1.7c-.433.168-.93.252-1.49.252-.322 0-.64-.033-.952-.098a4.912 4.912 0 0 1-.903-.266 4.883 4.883 0 0 1-.805-.42 3.895 3.895 0 0 1-.672-.546l.553-.903a.554.554 0 0 1 .182-.161.441.441 0 0 1 .238-.07c.116 0 .242.049.378.147.135.093.296.198.483.315.186.117.403.224.65.322.253.093.554.14.904.14.536 0 .952-.126 1.246-.378.294-.257.44-.623.44-1.099 0-.266-.067-.483-.202-.651a1.535 1.535 0 0 0-.525-.42 3.791 3.791 0 0 0-.75-.294 24.88 24.88 0 0 1-.853-.259 7.355 7.355 0 0 1-.854-.336c-.28-.13-.53-.301-.75-.511a2.376 2.376 0 0 1-.531-.784c-.131-.317-.196-.707-.196-1.169 0-.369.072-.728.217-1.078.149-.35.364-.66.644-.931.28-.27.625-.488 1.036-.651.41-.163.882-.245 1.414-.245a4.72 4.72 0 0 1 1.652.28 3.73 3.73 0 0 1 1.288.784l-.47.889Zm4.1 8.393c-.626 0-1.106-.175-1.442-.525-.332-.355-.497-.842-.497-1.463v-4.011h-.735a.337.337 0 0 1-.238-.091c-.066-.06-.098-.152-.098-.273v-.686l1.155-.189.364-1.96a.384.384 0 0 1 .133-.217.396.396 0 0 1 .252-.077h.896v2.261h1.918v1.232h-1.918v3.892c0 .224.053.399.16.525a.578.578 0 0 0 .456.189.856.856 0 0 0 .266-.035c.074-.028.137-.056.189-.084.056-.028.105-.054.147-.077a.226.226 0 0 1 .126-.042c.051 0 .093.014.126.042.032.023.067.06.105.112l.518.84c-.252.21-.542.369-.868.476a3.232 3.232 0 0 1-1.015.161Zm5.938-7.406c.532 0 1.015.086 1.45.259.438.173.811.418 1.12.735.312.317.552.705.72 1.162.168.457.252.968.252 1.533 0 .57-.084 1.083-.252 1.54a3.275 3.275 0 0 1-.72 1.169c-.309.322-.682.57-1.12.742a3.888 3.888 0 0 1-1.45.259 3.962 3.962 0 0 1-1.463-.259 3.164 3.164 0 0 1-1.127-.742 3.409 3.409 0 0 1-.72-1.169 4.442 4.442 0 0 1-.253-1.54c0-.565.084-1.076.252-1.533.173-.457.413-.845.721-1.162a3.211 3.211 0 0 1 1.127-.735 3.962 3.962 0 0 1 1.463-.259Zm0 6.069c.597 0 1.038-.2 1.323-.602.29-.401.434-.99.434-1.764 0-.775-.145-1.365-.434-1.771-.285-.406-.726-.609-1.323-.609-.607 0-1.057.205-1.35.616-.29.406-.435.994-.435 1.764s.145 1.358.434 1.764c.294.401.744.602 1.351.602Zm6.492-4.711c.224-.43.49-.765.798-1.008a1.691 1.691 0 0 1 1.092-.371c.331 0 .597.072.798.217l-.112 1.295a.339.339 0 0 1-.105.182.278.278 0 0 1-.175.049 2.11 2.11 0 0 1-.315-.035 2.343 2.343 0 0 0-.399-.035c-.191 0-.362.028-.511.084a1.295 1.295 0 0 0-.406.245 1.68 1.68 0 0 0-.315.378c-.089.15-.173.32-.252.511V35.5h-1.729v-7.182h1.015c.177 0 .301.033.371.098.07.06.117.173.14.336l.105.812Zm8.014 1.519a1.99 1.99 0 0 0-.098-.63 1.462 1.462 0 0 0-.28-.525 1.28 1.28 0 0 0-.483-.35 1.588 1.588 0 0 0-.672-.133c-.5 0-.894.142-1.183.427-.285.285-.467.688-.546 1.211h3.262Zm-3.297 1.043c.028.369.093.688.196.959.102.266.238.488.406.665.168.173.366.303.595.392.233.084.49.126.77.126s.52-.033.721-.098c.205-.065.382-.138.532-.217.154-.08.287-.152.399-.217a.685.685 0 0 1 .336-.098c.144 0 .252.054.322.161l.497.63a2.974 2.974 0 0 1-.644.567c-.238.15-.488.27-.749.364a4.169 4.169 0 0 1-.791.189 5.594 5.594 0 0 1-.777.056c-.5 0-.964-.082-1.393-.245a3.172 3.172 0 0 1-1.12-.735 3.482 3.482 0 0 1-.749-1.204c-.182-.48-.273-1.036-.273-1.666 0-.49.079-.95.238-1.379.158-.434.385-.81.679-1.127.298-.322.66-.576 1.085-.763.429-.187.912-.28 1.449-.28.452 0 .87.072 1.253.217.382.145.711.357.987.637.275.275.49.616.644 1.022.158.401.238.861.238 1.379 0 .261-.028.439-.084.532-.056.089-.164.133-.322.133h-4.445Z"
            fill="#393939" />
        <defs>
            <clipPath id="aa">
                <path fill="#fff" transform="translate(18.969 9.667)" d="M0 0h24.667v24.667H0z" />
            </clipPath>
        </defs>
    </symbol>
    <symbol fill="none" viewBox="0 0 134 44" id="GooglePlayImg" xmlns="http://www.w3.org/2000/svg">
        <rect x=".5" y=".5" width="132.396" height="43" rx="7.5" fill="#fff" />
        <rect x=".5" y=".5" width="132.396" height="43" rx="7.5" stroke="#DDD" />
        <path
            d="M41.29 19.583h-.992v-.05h-11.1v4.933h6.97c-1.018 2.871-3.75 4.933-6.97 4.933a7.399 7.399 0 0 1-7.4-7.4c0-4.087 3.312-7.4 7.4-7.4 1.886 0 3.603.711 4.909 1.874l3.488-3.488a12.275 12.275 0 0 0-8.397-3.319c-6.813 0-12.334 5.521-12.334 12.333 0 6.813 5.521 12.334 12.334 12.334 6.812 0 12.333-5.521 12.333-12.334 0-.826-.084-1.633-.24-2.416Z"
            fill="#FFC107" />
        <path
            d="m18.285 16.259 4.055 2.973a7.395 7.395 0 0 1 6.858-4.633c1.886 0 3.603.711 4.909 1.874l3.488-3.488a12.275 12.275 0 0 0-8.397-3.319c-4.739 0-8.846 2.674-10.913 6.593Z"
            fill="#FF3D00" />
        <path
            d="M29.198 34.333c3.184 0 6.08-1.219 8.27-3.201l-3.819-3.23a7.35 7.35 0 0 1-4.451 1.498c-3.209 0-5.93-2.045-6.957-4.9l-4.023 3.098c2.04 3.994 6.186 6.735 10.98 6.735Z"
            fill="#4CAF50" />
        <path
            d="M41.29 19.583h-.992v-.05h-11.1v4.933h6.97a7.434 7.434 0 0 1-2.521 3.435h.002l3.818 3.23c-.27.243 4.064-2.965 4.064-9.132 0-.826-.084-1.633-.241-2.416Z"
            fill="#1976D2" />
        <path
            d="M56.248 12.204c0 .644-.102 1.23-.306 1.758-.204.528-.492.98-.864 1.356-.372.376-.82.668-1.344.876a4.694 4.694 0 0 1-1.728.306h-3.21V7.902h3.21c.632 0 1.208.104 1.728.312.524.204.972.496 1.344.876.372.376.66.828.864 1.356.204.528.306 1.114.306 1.758Zm-1.194 0c0-.528-.072-1-.216-1.416a2.984 2.984 0 0 0-.612-1.056 2.61 2.61 0 0 0-.96-.66 3.335 3.335 0 0 0-1.26-.228H49.96v6.714h2.046c.464 0 .884-.076 1.26-.228.376-.152.696-.37.96-.654.264-.288.468-.64.612-1.056.144-.416.216-.888.216-1.416Zm3.63-1.782V16.5h-1.069v-6.078h1.069Zm.227-1.908a.673.673 0 0 1-.066.294.815.815 0 0 1-.167.24.753.753 0 0 1-.246.162.73.73 0 0 1-.294.06.73.73 0 0 1-.529-.222.875.875 0 0 1-.162-.24.73.73 0 0 1-.06-.294.73.73 0 0 1 .06-.294.753.753 0 0 1 .162-.246.742.742 0 0 1 .234-.168.73.73 0 0 1 .294-.06.73.73 0 0 1 .294.06c.097.04.178.096.247.168.072.068.128.15.168.246.044.092.066.19.066.294Zm5.067 2.91a.237.237 0 0 1-.222.132.418.418 0 0 1-.204-.066 3.59 3.59 0 0 0-.282-.144 2.152 2.152 0 0 0-.39-.15 1.802 1.802 0 0 0-.54-.072c-.18 0-.342.024-.486.072a1.16 1.16 0 0 0-.372.186.875.875 0 0 0-.234.282.754.754 0 0 0-.078.342c0 .156.044.286.132.39.092.104.212.194.36.27.148.076.316.144.504.204.188.056.38.118.576.186.2.064.394.136.582.216.188.08.356.18.504.3a1.329 1.329 0 0 1 .492 1.068c0 .28-.05.54-.15.78a1.73 1.73 0 0 1-.444.618 2.17 2.17 0 0 1-.72.408c-.284.1-.612.15-.984.15a3.11 3.11 0 0 1-1.152-.204 2.966 2.966 0 0 1-.876-.534l.252-.408a.366.366 0 0 1 .114-.12.308.308 0 0 1 .168-.042c.072 0 .148.028.228.084.08.056.176.118.288.186a1.915 1.915 0 0 0 1.032.27c.208 0 .39-.026.546-.078.156-.056.286-.13.39-.222a.837.837 0 0 0 .228-.318.955.955 0 0 0 .078-.384.616.616 0 0 0-.138-.414 1.052 1.052 0 0 0-.354-.282 2.606 2.606 0 0 0-.51-.204l-.582-.186a7.84 7.84 0 0 1-.582-.216 2.137 2.137 0 0 1-.504-.312 1.445 1.445 0 0 1-.36-.456 1.533 1.533 0 0 1-.132-.666c0-.232.048-.454.144-.666.096-.216.236-.404.42-.564.184-.164.41-.294.678-.39.268-.096.574-.144.918-.144.4 0 .758.064 1.074.192.32.124.596.296.828.516l-.24.39Zm2.726 3.612c.196.264.41.45.642.558.232.108.492.162.78.162.568 0 1.004-.202 1.308-.606.304-.404.456-.98.456-1.728 0-.396-.036-.736-.108-1.02a1.926 1.926 0 0 0-.3-.696 1.171 1.171 0 0 0-.486-.402 1.616 1.616 0 0 0-.654-.126c-.348 0-.654.08-.918.24-.26.16-.5.386-.72.678v2.94Zm-.054-3.672c.256-.316.552-.57.888-.762a2.28 2.28 0 0 1 1.152-.288c.352 0 .67.068.954.204.284.132.526.33.726.594.2.26.354.584.462.972.108.388.162.834.162 1.338 0 .448-.06.866-.18 1.254-.12.384-.294.718-.522 1.002-.224.28-.5.502-.828.666-.324.16-.69.24-1.098.24-.372 0-.692-.062-.96-.186a2.301 2.301 0 0 1-.702-.528v2.688H65.63v-8.136h.642c.152 0 .246.074.282.222l.096.72Zm8.268-1.038a3.1 3.1 0 0 1 1.2.222c.356.148.66.358.912.63s.444.602.576.99c.136.384.204.814.204 1.29 0 .48-.068.912-.204 1.296a2.735 2.735 0 0 1-.576.984 2.572 2.572 0 0 1-.912.63 3.175 3.175 0 0 1-1.2.216c-.448 0-.852-.072-1.212-.216a2.572 2.572 0 0 1-.912-.63 2.805 2.805 0 0 1-.582-.984 3.972 3.972 0 0 1-.198-1.296c0-.476.066-.906.198-1.29.136-.388.33-.718.582-.99.252-.272.556-.482.912-.63.36-.148.764-.222 1.212-.222Zm0 5.424c.6 0 1.048-.2 1.344-.6.296-.404.444-.966.444-1.686 0-.724-.148-1.288-.444-1.692-.296-.404-.744-.606-1.344-.606-.304 0-.57.052-.798.156a1.507 1.507 0 0 0-.564.45c-.148.196-.26.438-.336.726a3.941 3.941 0 0 0-.108.966c0 .72.148 1.282.444 1.686.3.4.754.6 1.362.6Zm5.255-4.446c.132-.148.272-.282.42-.402.148-.12.304-.222.468-.306a2.443 2.443 0 0 1 1.134-.27c.332 0 .624.056.876.168.256.108.468.264.636.468.172.2.302.442.39.726.088.284.132.598.132.942v3.87h-1.074v-3.87c0-.46-.106-.816-.318-1.068-.208-.256-.526-.384-.954-.384-.316 0-.612.076-.888.228a2.936 2.936 0 0 0-.756.618V16.5h-1.074v-6.078h.642c.152 0 .246.074.282.222l.084.66Zm6.817-.882V16.5h-1.074v-6.078h1.074Zm1.236-2.616-1.398 1.548a.607.607 0 0 1-.168.132.49.49 0 0 1-.204.036h-.636l.888-1.452a.586.586 0 0 1 .18-.198.543.543 0 0 1 .294-.066h1.044Zm5.721 2.616L91.47 16.5h-.96l-2.478-6.078h.87a.33.33 0 0 1 .33.222l1.542 3.912c.048.148.09.292.126.432.036.14.07.28.102.42.032-.14.066-.28.102-.42.036-.14.08-.284.132-.432l1.56-3.912a.33.33 0 0 1 .12-.156.311.311 0 0 1 .198-.066h.834Zm4.883 2.376c0-.248-.035-.474-.108-.678a1.437 1.437 0 0 0-.305-.534 1.292 1.292 0 0 0-.487-.348 1.616 1.616 0 0 0-.654-.126c-.511 0-.917.15-1.218.45-.296.296-.48.708-.552 1.236h3.325Zm.865 2.85c-.132.16-.29.3-.474.42a3.022 3.022 0 0 1-.595.288 3.503 3.503 0 0 1-.648.168c-.224.04-.445.06-.665.06-.42 0-.809-.07-1.165-.21a2.636 2.636 0 0 1-.917-.624 2.919 2.919 0 0 1-.6-1.02 4.135 4.135 0 0 1-.216-1.392c0-.424.063-.82.191-1.188.133-.368.32-.686.565-.954.243-.272.541-.484.893-.636a2.902 2.902 0 0 1 1.189-.234c.364 0 .7.062 1.007.186.313.12.58.296.804.528.229.228.407.512.535.852.127.336.191.72.191 1.152 0 .168-.018.28-.053.336-.036.056-.105.084-.204.084H95.47c.013.384.064.718.156 1.002.096.284.228.522.396.714.168.188.368.33.6.426a2.1 2.1 0 0 0 .78.138c.269 0 .498-.03.69-.09a3.456 3.456 0 0 0 .853-.402.47.47 0 0 1 .246-.096c.087 0 .156.034.203.102l.3.39Zm2.511-7.986V16.5h-1.068V7.662h1.068Zm5.811 3.642c.132-.148.272-.282.42-.402.148-.12.304-.222.468-.306a2.443 2.443 0 0 1 1.134-.27c.332 0 .624.056.876.168.256.108.468.264.636.468.172.2.302.442.39.726.088.284.132.598.132.942v3.87h-1.074v-3.87c0-.46-.106-.816-.318-1.068-.208-.256-.526-.384-.954-.384-.316 0-.612.076-.888.228a2.936 2.936 0 0 0-.756.618V16.5h-1.074v-6.078h.642c.152 0 .246.074.282.222l.084.66Zm8.977 2.46a8.645 8.645 0 0 0-1.26.12c-.344.06-.626.14-.846.24-.216.1-.374.218-.474.354a.772.772 0 0 0-.144.456c0 .16.026.298.078.414a.814.814 0 0 0 .21.288.956.956 0 0 0 .318.162c.124.032.256.048.396.048.188 0 .36-.018.516-.054.156-.04.302-.096.438-.168.14-.072.272-.158.396-.258.128-.1.252-.214.372-.342v-1.26Zm-3.45-2.484a3.47 3.47 0 0 1 1.086-.726c.388-.16.818-.24 1.29-.24.34 0 .642.056.906.168.264.112.486.268.666.468.18.2.316.442.408.726.092.284.138.596.138.936V16.5h-.474a.49.49 0 0 1-.24-.048c-.056-.036-.1-.104-.132-.204l-.12-.576c-.16.148-.316.28-.468.396a2.935 2.935 0 0 1-.48.288 2.585 2.585 0 0 1-.54.174 2.77 2.77 0 0 1-.63.066c-.236 0-.458-.032-.666-.096a1.61 1.61 0 0 1-.546-.3 1.453 1.453 0 0 1-.366-.498 1.807 1.807 0 0 1-.132-.72c0-.24.066-.47.198-.69.132-.224.346-.422.642-.594.296-.172.682-.312 1.158-.42.476-.112 1.06-.176 1.752-.192v-.474c0-.472-.102-.828-.306-1.068-.204-.244-.502-.366-.894-.366-.264 0-.486.034-.666.102-.176.064-.33.138-.462.222-.128.08-.24.154-.336.222a.48.48 0 0 1-.276.096.319.319 0 0 1-.186-.054.567.567 0 0 1-.132-.144l-.192-.342ZM57.169 30.425v4.095a5.42 5.42 0 0 1-1.645.833c-.579.173-1.2.259-1.862.259-.826 0-1.575-.128-2.247-.385a5.068 5.068 0 0 1-1.715-1.071 4.713 4.713 0 0 1-1.092-1.638 5.494 5.494 0 0 1-.385-2.079c0-.76.123-1.458.37-2.093a4.746 4.746 0 0 1 1.05-1.638 4.739 4.739 0 0 1 1.66-1.064c.648-.252 1.376-.378 2.184-.378.41 0 .793.033 1.148.098.36.065.69.156.994.273.308.112.588.25.84.413.252.163.483.343.693.539l-.54.854a.529.529 0 0 1-.328.252c-.136.028-.283-.007-.441-.105l-.462-.266a2.936 2.936 0 0 0-.518-.231 4.089 4.089 0 0 0-.637-.161 4.63 4.63 0 0 0-.812-.063c-.5 0-.952.084-1.358.252a2.871 2.871 0 0 0-1.03.721 3.25 3.25 0 0 0-.657 1.127 4.417 4.417 0 0 0-.231 1.47 4.6 4.6 0 0 0 .245 1.554c.168.453.401.838.7 1.155.303.313.667.553 1.092.721.424.163.898.245 1.42.245.374 0 .708-.04 1.002-.119.294-.08.58-.187.86-.322v-1.834h-1.273a.404.404 0 0 1-.287-.098.356.356 0 0 1-.098-.252v-1.064h3.36Zm4.637-2.219c.532 0 1.015.086 1.449.259.439.173.812.418 1.12.735.313.317.553.705.72 1.162.169.457.253.968.253 1.533 0 .57-.084 1.083-.252 1.54a3.273 3.273 0 0 1-.721 1.169c-.308.322-.681.57-1.12.742a3.888 3.888 0 0 1-1.45.259 3.963 3.963 0 0 1-1.462-.259 3.165 3.165 0 0 1-1.127-.742 3.41 3.41 0 0 1-.721-1.169 4.442 4.442 0 0 1-.252-1.54c0-.565.084-1.076.252-1.533.173-.457.413-.845.72-1.162a3.213 3.213 0 0 1 1.128-.735 3.963 3.963 0 0 1 1.463-.259Zm0 6.069c.597 0 1.038-.2 1.323-.602.29-.401.434-.99.434-1.764 0-.775-.145-1.365-.434-1.771-.285-.406-.726-.609-1.323-.609-.607 0-1.057.205-1.351.616-.29.406-.434.994-.434 1.764s.145 1.358.434 1.764c.294.401.744.602 1.35.602Zm8.039-6.069c.532 0 1.015.086 1.449.259.439.173.812.418 1.12.735.313.317.553.705.721 1.162.168.457.252.968.252 1.533 0 .57-.084 1.083-.252 1.54a3.273 3.273 0 0 1-.721 1.169c-.308.322-.681.57-1.12.742a3.888 3.888 0 0 1-1.449.259 3.963 3.963 0 0 1-1.463-.259 3.164 3.164 0 0 1-1.127-.742 3.41 3.41 0 0 1-.721-1.169 4.442 4.442 0 0 1-.252-1.54c0-.565.084-1.076.252-1.533.173-.457.413-.845.721-1.162a3.212 3.212 0 0 1 1.127-.735 3.963 3.963 0 0 1 1.463-.259Zm0 6.069c.597 0 1.038-.2 1.323-.602.29-.401.434-.99.434-1.764 0-.775-.145-1.365-.434-1.771-.285-.406-.726-.609-1.323-.609-.607 0-1.057.205-1.351.616-.29.406-.434.994-.434 1.764s.145 1.358.434 1.764c.294.401.744.602 1.351.602Zm7.431-2.541c.215 0 .402-.028.56-.084.159-.06.29-.142.392-.245a.942.942 0 0 0 .238-.371c.056-.145.084-.303.084-.476 0-.355-.107-.635-.322-.84-.21-.21-.527-.315-.952-.315-.424 0-.744.105-.959.315-.21.205-.315.485-.315.84 0 .168.026.324.077.469.056.145.136.27.238.378.108.103.24.184.4.245.163.056.35.084.56.084Zm1.953 4.088a.478.478 0 0 0-.126-.343.8.8 0 0 0-.343-.203 2.377 2.377 0 0 0-.51-.112 7.867 7.867 0 0 0-.617-.049 26.652 26.652 0 0 0-.672-.035 7.81 7.81 0 0 1-.672-.056 1.666 1.666 0 0 0-.469.378.78.78 0 0 0-.084.854.812.812 0 0 0 .301.287c.14.08.32.14.54.182.219.047.487.07.804.07.322 0 .6-.026.833-.077a1.83 1.83 0 0 0 .574-.203.835.835 0 0 0 .336-.308.734.734 0 0 0 .105-.385Zm1.722-7.259v.644c0 .205-.123.331-.37.378l-.645.119c.098.247.147.518.147.812a2.13 2.13 0 0 1-.805 1.694c-.252.2-.55.357-.896.469-.34.107-.709.161-1.106.161a3.81 3.81 0 0 1-.406-.021 5.108 5.108 0 0 1-.385-.056c-.224.135-.336.287-.336.455 0 .145.066.252.196.322.136.065.313.112.532.14.22.028.47.047.75.056.28.005.566.019.86.042.294.023.581.065.861.126.28.056.53.147.75.273.219.126.394.299.524.518.136.215.203.492.203.833 0 .317-.079.625-.238.924-.154.299-.38.565-.679.798-.294.233-.658.42-1.092.56-.429.145-.919.217-1.47.217a5.511 5.511 0 0 1-1.414-.161 3.25 3.25 0 0 1-1-.42 1.782 1.782 0 0 1-.596-.602 1.42 1.42 0 0 1-.196-.714c0-.336.1-.616.301-.84.206-.229.486-.41.84-.546a1.205 1.205 0 0 1-.455-.392c-.112-.163-.168-.378-.168-.644 0-.107.019-.217.056-.329.042-.117.1-.231.175-.343.08-.112.178-.217.294-.315.117-.103.255-.194.413-.273a2.293 2.293 0 0 1-.86-.784c-.206-.327-.309-.71-.309-1.148 0-.355.07-.674.21-.959.145-.29.343-.534.595-.735a2.72 2.72 0 0 1 .903-.469c.35-.107.73-.161 1.141-.161.308 0 .598.033.868.098.271.06.518.152.742.273h2.065Zm2.847-3.465V35.5h-1.73V25.098h1.73Zm6.35 5.985a1.98 1.98 0 0 0-.099-.63c-.06-.2-.154-.376-.28-.525a1.28 1.28 0 0 0-.483-.35 1.583 1.583 0 0 0-.671-.133c-.5 0-.894.142-1.183.427-.285.285-.467.688-.547 1.211h3.262Zm-3.297 1.043c.028.369.093.688.195.959a2 2 0 0 0 .406.665c.169.173.367.303.596.392.233.084.49.126.77.126s.52-.033.72-.098a3.22 3.22 0 0 0 .532-.217c.155-.08.288-.152.4-.217a.689.689 0 0 1 .335-.098c.145 0 .252.054.322.161l.498.63a2.958 2.958 0 0 1-.644.567c-.238.15-.488.27-.75.364a4.15 4.15 0 0 1-.79.189 5.594 5.594 0 0 1-.778.056c-.499 0-.963-.082-1.392-.245a3.18 3.18 0 0 1-1.12-.735 3.493 3.493 0 0 1-.75-1.204c-.181-.48-.272-1.036-.272-1.666 0-.49.079-.95.237-1.379.16-.434.385-.81.68-1.127.298-.322.66-.576 1.084-.763.43-.187.913-.28 1.45-.28.452 0 .87.072 1.252.217.383.145.712.357.988.637.275.275.49.616.644 1.022.158.401.237.861.237 1.379 0 .261-.027.439-.083.532-.056.089-.164.133-.322.133H86.85Zm13.115-1.659c.346 0 .647-.042.903-.126.257-.089.469-.212.637-.371.173-.163.301-.36.385-.588a2.28 2.28 0 0 0 .126-.777c0-.27-.042-.516-.126-.735a1.453 1.453 0 0 0-.378-.56 1.643 1.643 0 0 0-.637-.35 2.932 2.932 0 0 0-.91-.126H98.56v3.633h1.407Zm0-5.089c.677 0 1.263.08 1.757.238.495.159.903.38 1.225.665.322.285.56.625.714 1.022.159.397.238.83.238 1.302 0 .49-.081.94-.245 1.351a2.795 2.795 0 0 1-.735 1.05c-.326.294-.737.523-1.232.686-.49.163-1.064.245-1.722.245H98.56V35.5h-1.883V25.378h3.29Zm6.828-.28V35.5h-1.729V25.098h1.729Zm5.517 7.336c-.5.023-.92.068-1.26.133-.341.06-.614.14-.819.238-.206.098-.353.212-.441.343a.743.743 0 0 0-.133.427c0 .303.088.52.266.651.182.13.417.196.707.196.354 0 .66-.063.917-.189a2.79 2.79 0 0 0 .763-.588v-1.211Zm-3.962-3.115c.826-.756 1.82-1.134 2.982-1.134.42 0 .795.07 1.127.21.331.135.611.327.84.574.228.243.401.534.518.875.121.34.182.714.182 1.12V35.5h-.784a.822.822 0 0 1-.378-.07c-.089-.051-.159-.152-.21-.301l-.154-.518c-.182.163-.36.308-.532.434a3.315 3.315 0 0 1-.539.308 2.764 2.764 0 0 1-.602.189c-.21.047-.444.07-.7.07-.304 0-.584-.04-.84-.119a1.88 1.88 0 0 1-.665-.371 1.638 1.638 0 0 1-.434-.609 2.154 2.154 0 0 1-.154-.847 1.646 1.646 0 0 1 .385-1.057c.14-.163.319-.317.539-.462.219-.145.487-.27.805-.378a6.857 6.857 0 0 1 1.12-.259c.424-.07.91-.112 1.456-.126v-.42c0-.48-.103-.835-.308-1.064-.206-.233-.502-.35-.889-.35-.28 0-.514.033-.7.098a2.73 2.73 0 0 0-.483.224l-.385.217a.737.737 0 0 1-.378.098.51.51 0 0 1-.308-.091.83.83 0 0 1-.203-.224l-.308-.553Zm13.596-1.001-3.913 9.156a.625.625 0 0 1-.203.273c-.079.065-.203.098-.371.098h-1.288l1.344-2.884-2.905-6.643h1.519c.135 0 .24.033.315.098.079.065.138.14.175.224l1.526 3.724c.051.126.093.252.126.378.037.126.072.254.105.385l.126-.385a5.56 5.56 0 0 1 .14-.385l1.442-3.717a.51.51 0 0 1 .476-.322h1.386Z"
            fill="#393939" />
    </symbol>
    <symbol fill="none" viewBox="0 0 24 25" id="MyOrders" xmlns="http://www.w3.org/2000/svg">
        <path
            d="m5 7.7 2.286-3.2h9.143l2.285 3.2M5 7.7v11.2c0 .424.16.831.446 1.131.286.3.674.469 1.078.469H17.19c.405 0 .792-.169 1.078-.469.286-.3.446-.707.446-1.131V7.7M5 7.7h13.714m-3.81 3.2c0 .849-.32 1.663-.892 2.263-.571.6-1.347.937-2.155.937a2.976 2.976 0 0 1-2.155-.937A3.283 3.283 0 0 1 8.81 10.9"
            stroke="currentColor" stroke-width="1.5" stroke-linecap="round" stroke-linejoin="round" />
    </symbol>
    <symbol id="MyCoupons" xmlns="http://www.w3.org/2000/svg" width="24" height="24" viewBox="0 0 24 24" fill="none">
        <g clip-path="url(#clip0_21413_6430)">
        <path d="M20 6H4V9.07692C6.39958 10.2974 6.46154 12.7692 4 14V17.0769H20V14C17.5385 12.7692 17.5385 10.3077 20 9.07692V6Z" stroke="currentColor" stroke-linejoin="round"/>
        </g>
        <defs>
        <clipPath id="clip0_21413_6430">
        <rect width="24" height="24" fill="transparent"/>
        </clipPath>
        </defs>
    </symbol>
    <symbol fill="none" viewBox="0 0 24 25" id="BuyWhatsapp" xmlns="http://www.w3.org/2000/svg">
        <path
            d="M20 12.056a7.45 7.45 0 0 1-.8 3.377 7.556 7.556 0 0 1-6.756 4.178 7.448 7.448 0 0 1-3.377-.8L4 20.5l1.689-5.067a7.449 7.449 0 0 1-.8-3.377A7.556 7.556 0 0 1 9.067 5.3a7.449 7.449 0 0 1 3.377-.8h.445A7.538 7.538 0 0 1 20 11.611v.445Z"
            stroke="#393939" stroke-width="1.5" stroke-linecap="round" stroke-linejoin="round" />
    </symbol>
    <symbol fill="none" viewBox="0 0 24 25" id="Televendas" xmlns="http://www.w3.org/2000/svg">
        <path
            d="M20 16.48v2.408a1.604 1.604 0 0 1-1.094 1.527 1.613 1.613 0 0 1-.66.079 15.941 15.941 0 0 1-6.943-2.465 15.672 15.672 0 0 1-4.827-4.818 15.868 15.868 0 0 1-2.47-6.96 1.603 1.603 0 0 1 .953-1.614c.204-.09.425-.137.648-.137h2.414A1.61 1.61 0 0 1 9.63 5.881c.102.77.29 1.528.563 2.256a1.602 1.602 0 0 1-.362 1.694l-1.022 1.02a12.86 12.86 0 0 0 4.827 4.817l1.022-1.02a1.61 1.61 0 0 1 1.697-.36c.73.271 1.488.46 2.26.561A1.61 1.61 0 0 1 20 16.48Z"
            stroke="#393939" stroke-width="1.5" stroke-linecap="round" stroke-linejoin="round" />
    </symbol>
    <symbol fill="none" viewBox="0 0 24 25" id="HelpCentral" xmlns="http://www.w3.org/2000/svg">
        <path
            d="M9.672 10.1a2.4 2.4 0 0 1 4.664.8c0 1.6-2.4 2.4-2.4 2.4M12 16.5h.008m7.992-4a8 8 0 1 1-16 0 8 8 0 0 1 16 0Z"
            stroke="#393939" stroke-width="1.5" stroke-linecap="round" stroke-linejoin="round" />
    </symbol>
    <symbol fill="none" viewBox="0 0 24 25" id="CreditCard" xmlns="http://www.w3.org/2000/svg">
        <g stroke="#393939" stroke-miterlimit="10">
            <path
                d="M18.72 17.823H5.133c-.622 0-1.132-.51-1.132-1.132V7.632C4 7.01 4.51 6.5 5.132 6.5h13.589c.622 0 1.132.51 1.132 1.132v9.06c0 .633-.51 1.131-1.133 1.131Z" />
            <path d="M4 10.056h16" stroke-width="2.5" />
        </g>
    </symbol>
    <symbol fill="none" viewBox="0 0 24 25" id="OurStores" xmlns="http://www.w3.org/2000/svg">
        <path
            d="M5.28 11.814v7.635h13.23v-7.595m-7.57 7.595v-4.333a1.58 1.58 0 0 0-1.58-1.581h-.21a1.58 1.58 0 0 0-1.58 1.581v4.333m6.37-5.954h1.07c.823 0 1.49.668 1.49 1.49v.211a1.49 1.49 0 0 1-1.49 1.491h-1.07a1.49 1.49 0 0 1-1.49-1.49v-.211c0-.824.667-1.491 1.49-1.491ZM6.46 5.5h11.07L20 9.703H4.01L6.46 5.5ZM4 9.703s.07 2.07 1.68 2.151c1.61.08 2.14-.86 2.22-2.151H4Zm4.03 0s.07 2.07 1.68 2.151c1.61.08 2.14-.86 2.22-2.151h-3.9Zm4.03 0s.07 2.07 1.68 2.151c1.61.08 2.14-.86 2.22-2.151h-3.9Zm4.03 0s.07 2.07 1.68 2.151c1.61.08 2.14-.86 2.22-2.151h-3.9Z"
            stroke="#393939" stroke-width="1.5" stroke-linecap="round" stroke-linejoin="round" />
    </symbol>
    <symbol id="Wishlist" xmlns="http://www.w3.org/2000/svg" width="32" height="32"
        viewBox="0 0 32 32" fill="none">
        <path
            d="M25.0216 9.65027C24.5004 9.12709 23.8815 8.71206 23.2003 8.4289C22.5191 8.14574 21.7889 8 21.0516 8C20.3142 8 19.5841 8.14574 18.9029 8.4289C18.2217 8.71206 17.6028 9.12709 17.0815 9.65027L15.9997 10.7356L14.9179 9.65027C13.865 8.59397 12.4369 8.00055 10.9478 8.00055C9.45877 8.00055 8.03069 8.59397 6.97777 9.65027C5.92484 10.7066 5.33331 12.1392 5.33331 13.633C5.33331 15.1269 5.92484 16.5595 6.97777 17.6158L8.05958 18.7011L15.9997 26.6667L23.9398 18.7011L25.0216 17.6158C25.5432 17.0929 25.9569 16.472 26.2391 15.7886C26.5214 15.1052 26.6666 14.3728 26.6666 13.633C26.6666 12.8933 26.5214 12.1609 26.2391 11.4775C25.9569 10.7941 25.5432 10.1732 25.0216 9.65027Z"
            stroke="currentColor" fill="none" stroke-width="1.5" stroke-linecap="round"
            stroke-linejoin="round" 
            />
    </symbol>
    <symbol id="MagnifyingGlass" width="20" height="20" viewBox="0 0 20 20" fill="none"
        xmlns="http://www.w3.org/2000/svg">
        <path fill-rule="evenodd" clip-rule="evenodd"
            d="M8.33366 3.33366C5.57223 3.33366 3.33366 5.57223 3.33366 8.33366C3.33366 11.0951 5.57223 13.3337 8.33366 13.3337C11.0951 13.3337 13.3337 11.0951 13.3337 8.33366C13.3337 5.57223 11.0951 3.33366 8.33366 3.33366ZM1.66699 8.33366C1.66699 4.65176 4.65176 1.66699 8.33366 1.66699C12.0156 1.66699 15.0003 4.65176 15.0003 8.33366C15.0003 9.87425 14.4778 11.2928 13.6002 12.4217L18.0896 16.9111C18.415 17.2365 18.415 17.7641 18.0896 18.0896C17.7641 18.415 17.2365 18.415 16.9111 18.0896L12.4217 13.6002C11.2928 14.4778 9.87425 15.0003 8.33366 15.0003C4.65176 15.0003 1.66699 12.0156 1.66699 8.33366Z"
            fill="currentColor" />
    </symbol>
    <symbol width="25" height="25" fill="none" viewBox="0 0 25 25" id="Frete"
        xmlns="http://www.w3.org/2000/svg">
        <path
            d="M15.4406 14.601H20.5315V10.9647L18.3497 8.78285H15.4406V14.601ZM15.4406 14.601V5.14648H4.53149V14.601L15.4406 14.601ZM19.077 16.419C19.077 17.4232 18.263 18.2372 17.2588 18.2372C16.2547 18.2372 15.4406 17.4232 15.4406 16.419C15.4406 15.4149 16.2547 14.6009 17.2588 14.6009C18.263 14.6009 19.077 15.4149 19.077 16.419ZM9.62245 16.419C9.62245 17.4232 8.80842 18.2372 7.80427 18.2372C6.80011 18.2372 5.98608 17.4232 5.98608 16.419C5.98608 15.4149 6.80011 14.6009 7.80427 14.6009C8.80842 14.6009 9.62245 15.4149 9.62245 16.419Z"
            stroke="currentColor" stroke-width="1.5" stroke-linecap="round" stroke-linejoin="round" />
    </symbol>
    <symbol id="ExpressPicking" xmlns="http://www.w3.org/2000/svg" width="24" height="24"
        viewBox="0 0 24 24" fill="none">
        <path
            d="M5.28 11.3139V18.9487H18.51V11.354M10.94 18.9487V14.616C10.94 13.7429 10.2326 13.035 9.36 13.035H9.15C8.27739 13.035 7.57 13.7429 7.57 14.616V18.9487M13.94 12.995H15.01C15.8329 12.995 16.5 13.6625 16.5 14.4859V14.6961C16.5 15.5195 15.8329 16.187 15.01 16.187H13.94C13.1171 16.187 12.45 15.5195 12.45 14.6961V14.4859C12.45 13.6625 13.1171 12.995 13.94 12.995ZM6.46 5H17.53L20 9.20263H4.01L6.46 5ZM4 9.20263C4 9.20263 4.07 11.2739 5.68 11.354C7.29 11.434 7.82 10.4934 7.9 9.20263H4ZM8.03 9.20263C8.03 9.20263 8.1 11.2739 9.71 11.354C11.32 11.434 11.85 10.4934 11.93 9.20263H8.03ZM12.06 9.20263C12.06 9.20263 12.13 11.2739 13.74 11.354C15.35 11.434 15.88 10.4934 15.96 9.20263H12.06ZM16.09 9.20263C16.09 9.20263 16.16 11.2739 17.77 11.354C19.38 11.434 19.91 10.4934 19.99 9.20263H16.09Z"
            stroke="currentColor" stroke-linecap="round" stroke-linejoin="round" />
    </symbol>
    <symbol id="Trash" xmlns="http://www.w3.org/2000/svg" width="20" height="20" viewBox="0 0 20 20"
        fill="none">
        <path fill-rule="evenodd" clip-rule="evenodd"
            d="M7.15482 2.15483C7.46738 1.84227 7.89131 1.66667 8.33333 1.66667H11.6667C12.1087 1.66667 12.5326 1.84227 12.8452 2.15483C13.1577 2.46739 13.3333 2.89131 13.3333 3.33334V5H15.8236C15.8295 4.99994 15.8353 4.99994 15.8412 5H16.6667C17.1269 5 17.5 5.3731 17.5 5.83334C17.5 6.29357 17.1269 6.66667 16.6667 6.66667H16.6001L15.833 15.8715C15.8231 16.5207 15.5609 17.1413 15.1011 17.6011C14.6323 18.0699 13.9964 18.3333 13.3333 18.3333H6.66667C6.00362 18.3333 5.36774 18.0699 4.8989 17.6011C4.43906 17.1413 4.17685 16.5207 4.16696 15.8715L3.39989 6.66667H3.33333C2.8731 6.66667 2.5 6.29357 2.5 5.83334C2.5 5.3731 2.8731 5 3.33333 5H4.15878C4.16467 4.99994 4.17055 4.99994 4.17641 5H6.66667V3.33334C6.66667 2.89131 6.84226 2.46739 7.15482 2.15483ZM5.07233 6.66667L5.83045 15.7641C5.83237 15.7871 5.83333 15.8102 5.83333 15.8333C5.83333 16.0543 5.92113 16.2663 6.07741 16.4226C6.23369 16.5789 6.44565 16.6667 6.66667 16.6667H13.3333C13.5543 16.6667 13.7663 16.5789 13.9226 16.4226C14.0789 16.2663 14.1667 16.0543 14.1667 15.8333C14.1667 15.8102 14.1676 15.7871 14.1695 15.7641L14.9277 6.66667H5.07233ZM11.6667 5H8.33333V3.33334H11.6667V5ZM8.33333 8.33334C8.79357 8.33334 9.16667 8.70643 9.16667 9.16667V14.1667C9.16667 14.6269 8.79357 15 8.33333 15C7.8731 15 7.5 14.6269 7.5 14.1667V9.16667C7.5 8.70643 7.8731 8.33334 8.33333 8.33334ZM11.6667 8.33334C12.1269 8.33334 12.5 8.70643 12.5 9.16667V14.1667C12.5 14.6269 12.1269 15 11.6667 15C11.2064 15 10.8333 14.6269 10.8333 14.1667V9.16667C10.8333 8.70643 11.2064 8.33334 11.6667 8.33334Z"
            fill="currentColor" />
    </symbol>
    <symbol id="Truck" xmlns="http://www.w3.org/2000/svg" viewBox="0 0 24 24" fill="currentColor">
        <path fill-rule="evenodd" clip-rule="evenodd"
            d="M1.09998 4.99998C1.09998 4.50292 1.50292 4.09998 1.99998 4.09998H13C13.497 4.09998 13.9 4.50292 13.9 4.99998V5.09998H18C18.3161 5.09998 18.6091 5.26584 18.7717 5.53693L21.7717 10.5369C21.8556 10.6768 21.9 10.8369 21.9 11V17C21.9 17.497 21.497 17.9 21 17.9H19.7576C19.3789 19.061 18.2874 19.9 17 19.9C15.7125 19.9 14.621 19.061 14.2423 17.9H9.75761C9.37893 19.061 8.28743 19.9 6.99998 19.9C5.71252 19.9 4.62102 19.061 4.24234 17.9H2.99998C2.50292 17.9 2.09998 17.497 2.09998 17V13C2.09998 12.5029 2.50292 12.1 2.99998 12.1C3.49703 12.1 3.89998 12.5029 3.89998 13V16.1H4.24234C4.62102 14.9389 5.71252 14.1 6.99998 14.1C8.28743 14.1 9.37893 14.9389 9.75761 16.1H12.1V5.89998H1.99998C1.50292 5.89998 1.09998 5.49703 1.09998 4.99998ZM13.9 6.89998V10.1H19.4104L17.4904 6.89998H13.9ZM20.1 11.9H13.9V16.1H14.2423C14.621 14.9389 15.7125 14.1 17 14.1C18.2874 14.1 19.3789 14.9389 19.7576 16.1H20.1V11.9ZM2.09998 8.99997C2.09998 8.50292 2.50292 8.09997 2.99998 8.09997H6.99998C7.49703 8.09997 7.89998 8.50292 7.89998 8.99997C7.89998 9.49703 7.49703 9.89997 6.99998 9.89997H2.99998C2.50292 9.89997 2.09998 9.49703 2.09998 8.99997ZM6.99998 15.9C6.39246 15.9 5.89998 16.3925 5.89998 17C5.89998 17.6075 6.39246 18.1 6.99998 18.1C7.60749 18.1 8.09998 17.6075 8.09998 17C8.09998 16.3925 7.60749 15.9 6.99998 15.9ZM17 15.9C16.3925 15.9 15.9 16.3925 15.9 17C15.9 17.6075 16.3925 18.1 17 18.1C17.6075 18.1 18.1 17.6075 18.1 17C18.1 16.3925 17.6075 15.9 17 15.9Z" />
    </symbol>
    <symbol id="Close" xmlns="http://www.w3.org/2000/svg" viewBox="0 0 24 24" fill="currentColor">
        <path fill-rule="evenodd" clip-rule="evenodd"
            d="M5.29289 5.29289C5.68342 4.90237 6.31658 4.90237 6.70711 5.29289L12 10.5858L17.2929 5.29289C17.6834 4.90237 18.3166 4.90237 18.7071 5.29289C19.0976 5.68342 19.0976 6.31658 18.7071 6.70711L13.4142 12L18.7071 17.2929C19.0976 17.6834 19.0976 18.3166 18.7071 18.7071C18.3166 19.0976 17.6834 19.0976 17.2929 18.7071L12 13.4142L6.70711 18.7071C6.31658 19.0976 5.68342 19.0976 5.29289 18.7071C4.90237 18.3166 4.90237 17.6834 5.29289 17.2929L10.5858 12L5.29289 6.70711C4.90237 6.31658 4.90237 5.68342 5.29289 5.29289Z" />
    </symbol>
    <symbol id="ArrowDown" width="19" height="19" viewBox="0 0 19 19" fill="none"
        xmlns="http://www.w3.org/2000/svg">
        <path
            d="M15.5315 9.44299L9.53149 15.443M9.53149 15.443L3.53149 9.44299M9.53149 15.443V3.44299"
            stroke="currentColor" stroke-width="1.125" stroke-linecap="round"
            stroke-linejoin="round" />
    </symbol>
    <symbol id="Zoom" xmlns="http://www.w3.org/2000/svg" viewBox="0 0 32 32" fill="currentColor">
        <path fill-rule="evenodd" clip-rule="evenodd"
            d="M9.25138 3.47862C10.5455 2.94257 11.9326 2.66667 13.3333 2.66667C14.7341 2.66667 16.1212 2.94257 17.4153 3.47862C18.7094 4.01467 19.8853 4.80037 20.8758 5.79086C21.8663 6.78135 22.652 7.95724 23.188 9.25138C23.7241 10.5455 24 11.9326 24 13.3333C24 14.7341 23.7241 16.1212 23.188 17.4153C22.652 18.7094 21.8663 19.8853 20.8758 20.8758C19.8853 21.8663 18.7094 22.652 17.4153 23.188C16.1212 23.7241 14.7341 24 13.3333 24C11.9326 24 10.5455 23.7241 9.25138 23.188C7.95724 22.652 6.78135 21.8663 5.79086 20.8758C4.80037 19.8853 4.01467 18.7094 3.47862 17.4153C2.94257 16.1212 2.66667 14.7341 2.66667 13.3333C2.66667 11.9326 2.94257 10.5455 3.47862 9.25138C4.01467 7.95724 4.80037 6.78135 5.79086 5.79086C6.78135 4.80037 7.95724 4.01467 9.25138 3.47862ZM13.3333 5.33333C12.2828 5.33333 11.2425 5.54026 10.2719 5.9423C9.30126 6.34433 8.41935 6.93361 7.67648 7.67648C6.93361 8.41935 6.34433 9.30126 5.9423 10.2719C5.54026 11.2425 5.33333 12.2828 5.33333 13.3333C5.33333 14.3839 5.54026 15.4242 5.9423 16.3948C6.34433 17.3654 6.93361 18.2473 7.67648 18.9902C8.41935 19.7331 9.30126 20.3223 10.2719 20.7244C11.2425 21.1264 12.2828 21.3333 13.3333 21.3333C14.3839 21.3333 15.4242 21.1264 16.3948 20.7244C17.3654 20.3223 18.2473 19.7331 18.9902 18.9902C19.7331 18.2473 20.3223 17.3654 20.7244 16.3948C21.1264 15.4242 21.3333 14.3839 21.3333 13.3333C21.3333 12.2828 21.1264 11.2425 20.7244 10.2719C20.3223 9.30126 19.7331 8.41935 18.9902 7.67648C18.2473 6.93361 17.3654 6.34433 16.3948 5.9423C15.4242 5.54026 14.3839 5.33333 13.3333 5.33333Z" />
        <path fill-rule="evenodd" clip-rule="evenodd"
            d="M8 13.3333C8 12.597 8.59695 12 9.33333 12H17.3333C18.0697 12 18.6667 12.597 18.6667 13.3333C18.6667 14.0697 18.0697 14.6667 17.3333 14.6667H9.33333C8.59695 14.6667 8 14.0697 8 13.3333Z" />
        <path fill-rule="evenodd" clip-rule="evenodd"
            d="M13.3333 8C14.0697 8 14.6667 8.59695 14.6667 9.33333V17.3333C14.6667 18.0697 14.0697 18.6667 13.3333 18.6667C12.597 18.6667 12 18.0697 12 17.3333V9.33333C12 8.59695 12.597 8 13.3333 8Z" />
        <path fill-rule="evenodd" clip-rule="evenodd"
            d="M19.0572 19.0572C19.5779 18.5365 20.4221 18.5365 20.9428 19.0572L28.9428 27.0572C29.4635 27.5779 29.4635 28.4221 28.9428 28.9428C28.4221 29.4635 27.5779 29.4635 27.0572 28.9428L19.0572 20.9428C18.5365 20.4221 18.5365 19.5779 19.0572 19.0572Z" />
    </symbol>
    <symbol id="PickupPoint" xmlns="http://www.w3.org/2000/svg" width="24" height="24"
        viewBox="0 0 24 24" fill="none">
        <g id="Icons">
            <rect width="24" height="24" rx="12" fill="currentColor" />
            <g id="Vector">
                <path
                    d="M18 10.5455C18 15.6364 12 20 12 20C12 20 6 15.6364 6 10.5455C6 8.80949 6.63214 7.14463 7.75736 5.91712C8.88258 4.68961 10.4087 4 12 4C13.5913 4 15.1174 4.68961 16.2426 5.91712C17.3679 7.14463 18 8.80949 18 10.5455Z"
                    stroke="#393939" stroke-width="1.5" stroke-linecap="round"
                    stroke-linejoin="round" />
                <path
                    d="M12 12.7273C13.1046 12.7273 14 11.7504 14 10.5455C14 9.34047 13.1046 8.36364 12 8.36364C10.8954 8.36364 10 9.34047 10 10.5455C10 11.7504 10.8954 12.7273 12 12.7273Z"
                    stroke="#393939" stroke-width="1.5" stroke-linecap="round"
                    stroke-linejoin="round" />
            </g>
        </g>
    </symbol>
    <symbol id="Checked" xmlns="http://www.w3.org/2000/svg" width="100%" height="100%"
        viewBox="0 0 24 24" fill="none">
        <g id="Before Icon">
            <path id="Vector"
                d="M20 5.60469L12 13.6127L9.6 11.2127M20 11.2686V12.0046C19.999 13.7297 19.4404 15.4083 18.4075 16.79C17.3745 18.1718 15.9226 19.1826 14.2683 19.6717C12.6139 20.1608 10.8458 20.1021 9.22757 19.5042C7.60934 18.9064 6.22772 17.8015 5.28877 16.3542C4.34981 14.907 3.90383 13.195 4.01734 11.4736C4.13085 9.75223 4.79777 8.11364 5.91862 6.80224C7.03948 5.49083 8.55423 4.57688 10.2369 4.1967C11.9197 3.81651 13.6802 3.99045 15.256 4.69258"
                stroke="currentColor" stroke-width="1.5" stroke-linecap="round"
                stroke-linejoin="round" />
        </g>
    </symbol>
    <symbol id="CVCreditCard" fill="none" viewBox="0 0 22 16" xmlns="http://www.w3.org/2000/svg">
        <path
            d="M20.2734 0H1.72671C0.953374 0 0.333374 0.62 0.333374 1.39333V14.38C0.333374 15.1467 0.953374 15.7733 1.72671 15.7733H20.2734C21.04 15.7733 21.6667 15.1533 21.6667 14.38V1.39333C21.6667 0.626667 21.0467 0 20.2734 0Z"
            fill="#FFF200" />
        <path
            d="M14.5066 9.75312C15.3066 10.6398 16.1066 11.5265 16.9066 12.4131C16.2133 12.8265 14.98 12.9198 14.26 12.5531C13.72 12.2731 13.36 11.7798 13.36 11.2398C13.36 10.6265 13.8133 10.0331 14.4933 9.75979C14.4933 9.75979 14.5 9.75979 14.5066 9.75979M15.62 7.31312C15.5533 7.23979 15.4533 7.13312 15.3866 7.05979C15.18 6.83312 14.9266 6.51312 14.9 6.19312C14.8533 5.69312 15.2466 5.31979 15.68 5.31979C16.1133 5.31979 16.46 5.69312 16.46 6.19312C16.46 6.69312 15.9533 7.08646 15.6266 7.31312H15.62ZM19.1666 9.37979C19.1066 9.86646 18.9533 10.3331 18.72 10.7465C18.12 10.0865 17.52 9.41979 16.9266 8.75979C18.1533 8.25312 18.9466 7.31312 18.92 6.19312C18.8733 4.41979 17.4133 3.36646 15.5533 3.36646C13.6933 3.36646 12.1866 4.41312 12.1866 6.19312C12.1866 6.86646 12.58 7.63312 13.12 8.23979C11.6266 8.80646 10.6333 9.97979 10.6333 11.2931C10.6333 13.2865 12.8933 14.8998 15.7133 14.8998H15.74C16.7333 14.8998 17.6666 14.6465 18.4866 14.1931C18.5333 14.2465 18.58 14.2998 18.6333 14.3531C18.7733 14.5065 18.8933 14.5265 19.0733 14.4198C19.6066 14.0798 20.0933 13.6598 20.5 13.1731C20.64 13.0065 20.64 12.8798 20.4933 12.7198C20.4466 12.6665 20.3933 12.6131 20.3466 12.5598C20.9533 11.7265 21.3333 10.7198 21.4133 9.63312C21.4266 9.39979 21.34 9.29312 21.1066 9.26646C20.5866 9.20646 20.0666 9.14646 19.5466 9.08646C19.3066 9.05979 19.1933 9.14646 19.1666 9.38646V9.37979Z"
            fill="#E4D41C" />
        <path
            d="M10.4601 2.1799C10.4601 2.1799 10.4934 2.1999 10.5001 2.1799C10.6134 1.8799 10.7267 1.57323 10.8334 1.27323C10.8467 1.2399 10.8667 1.22656 10.9001 1.22656H11.2001C11.2534 1.22656 11.2867 1.2799 11.2667 1.32656C11.0667 1.8199 10.8667 2.3199 10.6667 2.81323C10.6534 2.84656 10.6334 2.8599 10.6001 2.8599H10.3467C10.3134 2.8599 10.2934 2.84656 10.2801 2.81323C10.0801 2.3199 9.88006 1.8199 9.68006 1.32656C9.66006 1.2799 9.69339 1.22656 9.74673 1.22656H10.0534C10.0934 1.22656 10.1067 1.2399 10.1201 1.27323C10.2334 1.57323 10.3467 1.8799 10.4534 2.1799"
            fill="black" />
        <path
            d="M2.70673 2.51333C2.74007 2.54666 2.74007 2.57999 2.70673 2.61333C2.52673 2.79999 2.3334 2.87999 2.06673 2.87999C1.5934 2.87999 1.2334 2.51333 1.2334 2.04666C1.2334 1.60666 1.54673 1.25333 1.9934 1.21333C2.2534 1.18666 2.50673 1.25999 2.6934 1.43999C2.7334 1.47333 2.7334 1.50666 2.6934 1.53999C2.6334 1.60666 2.5734 1.67333 2.52007 1.73999C2.48673 1.77999 2.4534 1.77999 2.4134 1.74666C2.30007 1.64666 2.18007 1.59333 2.02673 1.60666C1.80673 1.62666 1.66673 1.82666 1.66673 2.04666C1.66673 2.26666 1.80007 2.45999 2.02673 2.48666C2.18673 2.50666 2.3134 2.44666 2.42673 2.33999C2.46673 2.30666 2.4934 2.30666 2.52673 2.33999C2.58673 2.39999 2.64007 2.45333 2.70007 2.51333"
            fill="black" />
        <path
            d="M11.4668 2.85323C11.4134 2.85323 11.3934 2.83323 11.3934 2.7799V1.2999C11.3934 1.24656 11.4134 1.22656 11.4668 1.22656H11.7401C11.7934 1.22656 11.8134 1.24656 11.8134 1.2999V2.7799C11.8134 2.83323 11.7934 2.85323 11.7401 2.85323H11.4668Z"
            fill="black" />
        <path
            d="M6.73337 1.82664C6.73337 1.82664 6.70671 1.80664 6.69337 1.82664C6.65337 1.91997 6.62004 2.00664 6.58004 2.09997C6.57337 2.11997 6.58004 2.12664 6.60004 2.12664H6.82004C6.82004 2.12664 6.84671 2.1133 6.84004 2.09997C6.80004 2.00664 6.76671 1.91997 6.72671 1.82664M7.01337 2.5333C7.01337 2.5333 6.99337 2.50664 6.97337 2.50664H6.43337C6.43337 2.50664 6.40004 2.5133 6.39337 2.5333C6.35337 2.62664 6.32004 2.7133 6.28004 2.80664C6.26671 2.83997 6.24671 2.8533 6.21337 2.8533H5.93337C5.88004 2.8533 5.84671 2.79997 5.86671 2.7533C6.08004 2.25997 6.28671 1.75997 6.50004 1.26664C6.51337 1.2333 6.53337 1.21997 6.56671 1.21997H6.84004C6.87337 1.21997 6.89337 1.2333 6.90671 1.26664C7.12004 1.75997 7.32671 2.25997 7.54004 2.7533C7.56004 2.79997 7.52671 2.8533 7.47337 2.8533H7.18671C7.15337 2.8533 7.13337 2.83997 7.12004 2.80664C7.08004 2.7133 7.04671 2.62664 7.00671 2.5333H7.01337Z"
            fill="black" />
        <path
            d="M3.46676 2.0933C3.46676 2.0933 3.46676 2.11997 3.48676 2.11997H3.70676C3.70676 2.11997 3.73343 2.10664 3.72676 2.0933C3.68676 1.99997 3.65343 1.9133 3.61343 1.81997C3.60676 1.79997 3.58676 1.79997 3.57343 1.81997C3.53343 1.9133 3.50009 1.99997 3.46009 2.0933M3.90009 2.5333C3.90009 2.5333 3.88009 2.50664 3.86009 2.50664H3.32009C3.32009 2.50664 3.28676 2.5133 3.28009 2.5333C3.24009 2.62664 3.20676 2.7133 3.16676 2.80664C3.15343 2.83997 3.13343 2.8533 3.10009 2.8533H2.82009C2.76676 2.8533 2.73343 2.79997 2.75343 2.7533C2.96676 2.25997 3.17343 1.75997 3.38676 1.26664C3.40009 1.2333 3.42009 1.21997 3.45342 1.21997H3.72676C3.76009 1.21997 3.78009 1.2333 3.79343 1.26664C4.00676 1.75997 4.21342 2.25997 4.42676 2.7533C4.44676 2.79997 4.41342 2.8533 4.36009 2.8533H4.07343C4.04009 2.8533 4.02009 2.83997 4.00676 2.80664C3.96676 2.7133 3.93343 2.62664 3.89343 2.5333H3.90009Z"
            fill="black" />
        <path
            d="M12.9867 2.0399C12.9867 1.78656 12.8134 1.6199 12.5667 1.6199H12.4934C12.4934 1.6199 12.4534 1.63323 12.4534 1.6599V2.4199C12.4534 2.4199 12.4667 2.4599 12.4934 2.4599H12.5667C12.8201 2.4599 12.9867 2.29323 12.9867 2.0399ZM12.5667 1.22656C13.0467 1.22656 13.4267 1.54656 13.4267 2.03323C13.4267 2.5199 13.0401 2.85323 12.5667 2.85323H12.1001C12.0467 2.85323 12.0267 2.83323 12.0267 2.7799V1.2999C12.0267 1.24656 12.0467 1.22656 12.1001 1.22656H12.5667Z"
            fill="black" />
        <path
            d="M13.9733 2.42656C13.9733 2.42656 13.9867 2.46656 14.0133 2.46656H14.6533C14.7067 2.46656 14.7267 2.48656 14.7267 2.5399V2.7799C14.7267 2.83323 14.7067 2.85323 14.6533 2.85323H13.6267C13.5733 2.85323 13.5533 2.83323 13.5533 2.7799V1.2999C13.5533 1.24656 13.5733 1.22656 13.6267 1.22656H14.64C14.6933 1.22656 14.7133 1.24656 14.7133 1.2999V1.5399C14.7133 1.59323 14.6933 1.61323 14.64 1.61323H14.0133C14.0133 1.61323 13.9733 1.62656 13.9733 1.65323V1.7999C13.9733 1.7999 13.9867 1.8399 14.0133 1.8399H14.54C14.5933 1.8399 14.6133 1.8599 14.6133 1.91323V2.15323C14.6133 2.20656 14.5933 2.22656 14.54 2.22656H14.0133C14.0133 2.22656 13.9733 2.2399 13.9733 2.26656V2.4199"
            fill="black" />
        <path
            d="M14.7401 2.04662C14.7401 1.55995 15.1268 1.19995 15.6001 1.19995C16.0801 1.19995 16.4601 1.55995 16.4601 2.03328C16.4601 2.50662 16.0734 2.87995 15.6001 2.87995C15.1201 2.87995 14.7401 2.51995 14.7401 2.04662ZM15.6001 2.48662C15.8468 2.48662 16.0201 2.29328 16.0201 2.04662C16.0201 1.79995 15.8468 1.59995 15.5934 1.59995C15.3468 1.59995 15.1734 1.79995 15.1734 2.03995C15.1734 2.27995 15.3468 2.48662 15.6001 2.48662Z"
            fill="black" />
        <path
            d="M16.3534 2.85993C16.3534 2.85993 16.38 2.85993 16.3867 2.85326C16.4 2.85326 16.4067 2.83993 16.4134 2.83326C16.42 2.8266 16.4267 2.81993 16.4334 2.8066C16.4334 2.79326 16.4334 2.7866 16.4334 2.77326C16.4334 2.77326 16.4334 2.75326 16.4334 2.73993C16.4334 2.7266 16.42 2.71993 16.4134 2.71327C16.4067 2.7066 16.4 2.69993 16.3867 2.69326C16.3734 2.69326 16.3667 2.6866 16.3534 2.6866C16.34 2.6866 16.3267 2.6866 16.32 2.69326C16.3067 2.69326 16.3 2.7066 16.2934 2.71327C16.2867 2.71993 16.28 2.73326 16.2734 2.73993C16.2734 2.75326 16.2734 2.75993 16.2734 2.77326C16.2734 2.77326 16.2734 2.79326 16.2734 2.8066C16.2734 2.81993 16.2867 2.8266 16.2934 2.83326C16.3 2.83993 16.3067 2.8466 16.32 2.85326C16.3334 2.85326 16.34 2.85326 16.3534 2.85326M16.3534 2.7666H16.3667C16.3667 2.7666 16.3667 2.75993 16.3667 2.75326V2.73993C16.3667 2.73993 16.36 2.73993 16.3534 2.73993H16.3267V2.77326H16.3534V2.7666ZM16.3067 2.71327H16.3534C16.3534 2.71327 16.38 2.71327 16.3867 2.7266C16.3867 2.7266 16.3934 2.73993 16.3934 2.75326C16.3934 2.75326 16.3934 2.77326 16.3867 2.77326C16.3867 2.77326 16.3734 2.77993 16.3667 2.7866L16.3934 2.8266H16.3667L16.34 2.79326H16.32V2.8266H16.2934V2.71327H16.3067ZM16.3467 2.87993C16.3467 2.87993 16.32 2.87993 16.3067 2.87326C16.2934 2.87326 16.28 2.85993 16.2734 2.85326C16.2667 2.8466 16.2534 2.83326 16.2534 2.81993C16.2534 2.8066 16.2467 2.79326 16.2467 2.77993C16.2467 2.77993 16.2467 2.75326 16.2534 2.73993C16.2534 2.7266 16.2667 2.71326 16.2734 2.7066C16.28 2.69993 16.2934 2.6866 16.3067 2.6866C16.32 2.6866 16.3334 2.67993 16.3467 2.67993C16.36 2.67993 16.3734 2.67993 16.3867 2.6866C16.4 2.6866 16.4134 2.69993 16.42 2.7066C16.4267 2.71326 16.44 2.7266 16.44 2.73993C16.44 2.75326 16.4467 2.7666 16.4467 2.77993C16.4467 2.77993 16.4467 2.8066 16.44 2.81993C16.44 2.83326 16.4267 2.8466 16.42 2.85326C16.4134 2.85993 16.4 2.87326 16.3867 2.87326C16.3734 2.87326 16.36 2.87993 16.3467 2.87993Z"
            fill="black" />
        <path
            d="M5.72677 1.38665C5.76677 1.41998 5.77343 1.44665 5.74677 1.48665C5.7001 1.55331 5.65343 1.62665 5.60677 1.69331C5.5801 1.73331 5.54677 1.73998 5.50677 1.71331C5.39343 1.63998 5.24677 1.59331 5.1601 1.58665C5.07343 1.57331 4.95343 1.59998 4.95343 1.66665C4.94677 1.78665 5.19343 1.81331 5.24677 1.82665C5.35343 1.85331 5.45343 1.87998 5.5601 1.92665C5.73343 2.00665 5.85343 2.12665 5.86677 2.32665C5.8801 2.63998 5.6401 2.82665 5.35343 2.86665C5.07343 2.90665 4.72677 2.81998 4.51343 2.63998C4.47343 2.60665 4.47343 2.57331 4.50677 2.53331C4.5601 2.46665 4.61343 2.40665 4.66677 2.33998C4.7001 2.29998 4.72677 2.29998 4.76677 2.32665C4.9001 2.42665 5.0601 2.47998 5.2201 2.48665C5.33343 2.48665 5.42677 2.45998 5.42677 2.37331C5.42677 2.28665 5.25343 2.25331 5.18677 2.23998C4.99343 2.19998 4.79343 2.16665 4.65343 2.01331C4.5601 1.91331 4.51343 1.78665 4.53343 1.65331C4.5801 1.29998 4.9001 1.15998 5.27343 1.19998C5.45343 1.21998 5.6001 1.27331 5.74677 1.37998"
            fill="black" />
        <path fill-rule="evenodd" clip-rule="evenodd"
            d="M8.62008 0.879883C9.26008 0.879883 9.78008 1.39988 9.78008 2.03988C9.78008 2.67988 9.26008 3.19988 8.62008 3.19988C7.98008 3.19988 7.46008 2.67988 7.46008 2.03988C7.46008 1.39988 7.98008 0.879883 8.62008 0.879883Z"
            fill="white" />
        <path fill-rule="evenodd" clip-rule="evenodd"
            d="M8.62006 0.986572C9.20673 0.986572 9.68006 1.45991 9.68006 2.04657C9.68006 2.63324 9.20673 3.10657 8.62006 3.10657C8.03339 3.10657 7.56006 2.63324 7.56006 2.04657C7.56006 1.45991 8.03339 0.986572 8.62006 0.986572Z"
            fill="#E20613" />
        <path
            d="M8.43337 2.13332C8.55337 2.26665 8.68004 2.40665 8.80004 2.53999C8.69337 2.60665 8.50671 2.61999 8.39337 2.55999C8.31337 2.51999 8.25337 2.43999 8.25337 2.35999C8.25337 2.26665 8.32004 2.17332 8.42671 2.13332M8.59337 1.75999C8.59337 1.75999 8.56671 1.73332 8.56004 1.71999C8.52671 1.68665 8.49337 1.63332 8.48671 1.58665C8.48004 1.51332 8.54004 1.45332 8.60671 1.45332C8.67337 1.45332 8.72671 1.51332 8.72671 1.58665C8.72671 1.65999 8.64671 1.71999 8.60004 1.75999H8.59337ZM9.13337 2.07332C9.12671 2.14665 9.10004 2.21999 9.06671 2.27999C8.97337 2.17999 8.88671 2.07999 8.79337 1.97999C8.98004 1.89999 9.10004 1.75999 9.10004 1.58665C9.09337 1.31332 8.87337 1.15332 8.58671 1.15332C8.30004 1.15332 8.07337 1.31332 8.07337 1.58665C8.07337 1.68665 8.13337 1.80665 8.21337 1.89999C7.98671 1.98665 7.83337 2.16665 7.83337 2.36665C7.83337 2.67332 8.18004 2.91999 8.60671 2.91999C8.76004 2.91999 8.90004 2.87999 9.02671 2.81332C9.03337 2.81999 9.04004 2.82665 9.04671 2.83999C9.06671 2.86665 9.08671 2.86665 9.11337 2.84665C9.19337 2.79332 9.26671 2.73332 9.33337 2.65332C9.35337 2.62665 9.35337 2.60665 9.33337 2.58665C9.32671 2.57999 9.32004 2.57332 9.31337 2.55999C9.40671 2.43332 9.46671 2.27999 9.47337 2.11332C9.47337 2.07999 9.46004 2.05999 9.42671 2.05999C9.34671 2.05332 9.26671 2.03999 9.18671 2.03332C9.15337 2.03332 9.13337 2.03999 9.12671 2.07999L9.13337 2.07332Z"
            fill="white" />
    </symbol>
    <symbol fill="none" viewBox="0 0 25 24" id="FilterButtonMob" xmlns="http://www.w3.org/2000/svg">
        <path
            d="M18.318 19v-3.889m-2.182 0H20.5M18.318 12V5M12.5 8.889V5m0 3.889h-2.182m2.182 0h2.182M12.5 19v-7m-8 1.556h2.182m0 0h2.182m-2.182 0V19m0-8.556V5"
            stroke="#393939" stroke-width="1.5" stroke-linecap="round" stroke-linejoin="round" />
    </symbol>
    <symbol id="XMark" xmlns="http://www.w3.org/2000/svg" fill="none" viewBox="0 0 24 24"
        stroke="currentColor">
        <path stroke-linecap="round" stroke-linejoin="round" d="M6 18L18 6M6 6l12 12" />
    </symbol>
    <symbol fill="none" viewBox="0 0 37 39" id="SliderArrowLeft"
        xmlns="http://www.w3.org/2000/svg">
        <g filter="url(#aa)">
            <ellipse cx="18.5" cy="18.723" rx="16.5" ry="16.808" fill="#fff" />
            <path d="m22.615 25.32-6.605-6.614 6.605-6.616" stroke="#EE4F31" stroke-width="1.5"
                stroke-linecap="round" stroke-linejoin="round" />
        </g>
        <defs>
            <filter id="aa" x="0" y=".915" width="37" height="37.615" filterUnits="userSpaceOnUse"
                color-interpolation-filters="sRGB">
                <feFlood flood-opacity="0" result="BackgroundImageFix" />
                <feColorMatrix in="SourceAlpha" values="0 0 0 0 0 0 0 0 0 0 0 0 0 0 0 0 0 0 127 0"
                    result="hardAlpha" />
                <feOffset dy="1" />
                <feGaussianBlur stdDeviation="1" />
                <feComposite in2="hardAlpha" operator="out" />
                <feColorMatrix
                    values="0 0 0 0 0.105882 0 0 0 0 0.141176 0 0 0 0 0.172549 0 0 0 0.12 0" />
                <feBlend in2="BackgroundImageFix" result="effect1_dropShadow_10582_5352" />
                <feBlend in="SourceGraphic" in2="effect1_dropShadow_10582_5352" result="shape" />
            </filter>
        </defs>
    </symbol>
    <symbol fill="none" viewBox="0 0 37 38" id="SliderArrowRight"
        xmlns="http://www.w3.org/2000/svg">
        <g filter="url(#aa)">
            <ellipse cx="18.5" cy="18.161" rx="16.5" ry="16.808" fill="#fff" />
            <path d="m16.01 24.759 6.605-6.616-6.605-6.615" stroke="#EE4F31" stroke-width="1.5"
                stroke-linecap="round" stroke-linejoin="round" />
        </g>
        <defs>
            <filter id="aa" x="0" y=".353" width="37" height="37.615" filterUnits="userSpaceOnUse"
                color-interpolation-filters="sRGB">
                <feFlood flood-opacity="0" result="BackgroundImageFix" />
                <feColorMatrix in="SourceAlpha" values="0 0 0 0 0 0 0 0 0 0 0 0 0 0 0 0 0 0 127 0"
                    result="hardAlpha" />
                <feOffset dy="1" />
                <feGaussianBlur stdDeviation="1" />
                <feComposite in2="hardAlpha" operator="out" />
                <feColorMatrix
                    values="0 0 0 0 0.105882 0 0 0 0 0.141176 0 0 0 0 0.172549 0 0 0 0.12 0" />
                <feBlend in2="BackgroundImageFix" result="effect1_dropShadow_10582_5343" />
                <feBlend in="SourceGraphic" in2="effect1_dropShadow_10582_5343" result="shape" />
            </filter>
        </defs>
    </symbol>
    <symbol id="sucessToast" width="18" height="18" viewBox="0 0 18 18" fill="none"
        xmlns="http://www.w3.org/2000/svg">
        <path
            d="M17 2.60469L9 10.6127L6.6 8.21269M17 8.26858V9.00458C16.999 10.7297 16.4404 12.4083 15.4075 13.79C14.3745 15.1718 12.9226 16.1826 11.2683 16.6717C9.61394 17.1608 7.84581 17.1021 6.22757 16.5042C4.60934 15.9064 3.22772 14.8015 2.28877 13.3542C1.34981 11.907 0.903833 10.195 1.01734 8.47363C1.13085 6.75223 1.79777 5.11364 2.91862 3.80224C4.03948 2.49083 5.55423 1.57688 7.23695 1.1967C8.91967 0.816507 10.6802 0.990449 12.256 1.69258"
            stroke="white" stroke-width="1.5" stroke-linecap="round" stroke-linejoin="round" />
    </symbol>
    <symbol id="closeToast" width="18" height="18" viewBox="0 0 18 18" fill="none"
        xmlns="http://www.w3.org/2000/svg">
        <path
            d="M6.6 6.6L11.4 11.4M11.4 6.6L6.6 11.4M17 9C17 13.4183 13.4183 17 9 17C4.58172 17 1 13.4183 1 9C1 4.58172 4.58172 1 9 1C13.4183 1 17 4.58172 17 9Z"
            stroke="#393939" stroke-width="1.5" stroke-linecap="round" stroke-linejoin="round" />
    </symbol>
    <symbol id="warningToast" width="18" height="16" viewBox="0 0 18 16" fill="none"
        xmlns="http://www.w3.org/2000/svg">
        <path
            d="M8.99998 5.71948V8.81293M8.99998 11.9064H9.00764M7.69066 1.74455L1.20522 12.6799C1.07151 12.9138 1.00075 13.179 1.00001 13.449C0.999257 13.7191 1.06854 13.9847 1.20095 14.2193C1.33337 14.4539 1.52431 14.6495 1.75477 14.7864C1.98523 14.9234 2.24718 14.997 2.51456 15H15.4854C15.7528 14.997 16.0148 14.9234 16.2452 14.7864C16.4757 14.6495 16.6666 14.4539 16.799 14.2193C16.9315 13.9847 17.0007 13.7191 17 13.449C16.9992 13.179 16.9285 12.9138 16.7948 12.6799L13.5521 7.21223L10.3093 1.74455C10.1728 1.51726 9.98064 1.32935 9.7513 1.19893C9.52195 1.06851 9.2632 1 9 1C8.7368 1 8.47805 1.06851 8.2487 1.19893C8.01936 1.32935 7.82716 1.51726 7.69066 1.74455Z"
            stroke="white" stroke-width="1.5" stroke-linecap="round" stroke-linejoin="round" />
    </symbol>
    <symbol id="infoToast" width="18" height="18" viewBox="0 0 18 18" fill="none"
        xmlns="http://www.w3.org/2000/svg">
        <path
            d="M9 5.8H9.008M9 12.2V9M17 9C17 13.4183 13.4183 17 9 17C4.58172 17 1 13.4183 1 9C1 4.58172 4.58172 1 9 1C13.4183 1 17 4.58172 17 9Z"
            stroke="white" stroke-width="1.5" stroke-linecap="round" stroke-linejoin="round" />
    </symbol>
    <symbol id="Home" xmlns="http://www.w3.org/2000/svg" width="22" height="22" viewBox="0 0 22 22"
        fill="none">
        <path
            d="M8.86115 18.3334V11.0001H13.1389V18.3334M4.58337 8.80008L11 3.66675L17.4167 8.80008V16.8667C17.4167 17.2557 17.2665 17.6288 16.9991 17.9038C16.7316 18.1789 16.369 18.3334 15.9908 18.3334H6.0093C5.63112 18.3334 5.26843 18.1789 5.00102 17.9038C4.7336 17.6288 4.58337 17.2557 4.58337 16.8667V8.80008Z"
            stroke="currentColor" stroke-width="1.5" stroke-linecap="round" stroke-linejoin="round" />
    </symbol>
    <symbol id="Hamburguer" xmlns="http://www.w3.org/2000/svg" width="100%" height="100%"
        viewBox="0 0 24 25" fill="none">
        <path
            d="M8.16667 7.88916H13.5833H19M8.16667 12.8892H19M8.16667 17.8892H19M4 7.88916H4.00833M4 17.8892H4.00833M4 12.8892H4.00833"
            stroke="currentColor" stroke-width="1.5" stroke-linecap="round" stroke-linejoin="round" />
    </symbol>
    <symbol fill="none" viewBox="0 0 16 16" id="Whatsapp" xmlns="http://www.w3.org/2000/svg">
		<path d="M8 16A8 8 0 1 0 8 0a8 8 0 0 0 0 16Z" fill="#27AE60" />
		<path
			d="M10.663 8.9a21.538 21.538 0 0 0-.908-.43c-.122-.044-.21-.066-.3.067-.088.132-.343.43-.42.518-.078.087-.156.094-.288.033-.133-.066-.562-.207-1.07-.661a4.038 4.038 0 0 1-.74-.922c-.077-.134-.008-.207.058-.274.06-.06.134-.154.2-.234.066-.08.088-.133.133-.22.044-.094.022-.167-.011-.234-.034-.067-.3-.722-.41-.982-.107-.26-.218-.227-.3-.227-.077-.007-.166-.007-.254-.007a.502.502 0 0 0-.355.16c-.122.134-.465.455-.465 1.103 0 .648.476 1.276.542 1.37.067.086.938 1.422 2.272 1.997.318.134.565.214.759.28.318.1.608.088.837.054.256-.04.787-.32.898-.635.114-.314.114-.574.08-.634-.033-.06-.12-.094-.254-.154l-.004.033Zm-2.422 3.282h-.006c-.789 0-1.57-.213-2.252-.614l-.16-.096-1.67.435.447-1.624-.107-.167a4.393 4.393 0 0 1-.675-2.342c0-2.426 1.985-4.403 4.429-4.403 1.182 0 2.291.46 3.127 1.296A4.36 4.36 0 0 1 12.67 7.78c-.002 2.426-1.987 4.403-4.425 4.403H8.24Zm3.769-8.15a5.407 5.407 0 0 0-3.775-1.537c-2.932 0-5.319 2.376-5.32 5.297 0 .933.244 1.844.71 2.648l-.755 2.745 2.821-.737a5.356 5.356 0 0 0 2.544.645h.002c2.934 0 5.321-2.376 5.323-5.298a5.256 5.256 0 0 0-1.557-3.747"
			fill="#fff" />
	</symbol>
    <symbol fill="none" viewBox="0 0 16 16" id="ArrowDirectionRight"
		xmlns="http://www.w3.org/2000/svg">
		<path d="M5.333 13.333 10.667 8 5.333 2.667" stroke="#F3F3F3" stroke-width="1.5"
			stroke-linecap="round" stroke-linejoin="round" />
	</symbol>
    <symbol fill="none" viewBox="0 0 24 24" id="LocationPoint"
		xmlns="http://www.w3.org/2000/svg">
		<path
			d="M18 10.546C18 15.636 12 20 12 20s-6-4.364-6-9.454c0-1.737.632-3.401 1.757-4.629C8.883 4.69 10.41 4 12 4c1.591 0 3.117.69 4.243 1.917C17.368 7.145 18 8.81 18 10.546Z"
			stroke="#fff" stroke-width="1.5" stroke-linecap="round" stroke-linejoin="round" />
		<path
			d="M12 12.727c1.105 0 2-.977 2-2.181 0-1.206-.895-2.182-2-2.182s-2 .976-2 2.181.895 2.182 2 2.182Z"
			stroke="#fff" stroke-width="1.5" stroke-linecap="round" stroke-linejoin="round" />
	</symbol>
    <symbol fill="none" viewBox="0 0 24 25" id="Televendas" xmlns="http://www.w3.org/2000/svg">
		<path
			d="M20 16.48v2.408a1.604 1.604 0 0 1-1.094 1.527 1.613 1.613 0 0 1-.66.079 15.941 15.941 0 0 1-6.943-2.465 15.672 15.672 0 0 1-4.827-4.818 15.868 15.868 0 0 1-2.47-6.96 1.603 1.603 0 0 1 .953-1.614c.204-.09.425-.137.648-.137h2.414A1.61 1.61 0 0 1 9.63 5.881c.102.77.29 1.528.563 2.256a1.602 1.602 0 0 1-.362 1.694l-1.022 1.02a12.86 12.86 0 0 0 4.827 4.817l1.022-1.02a1.61 1.61 0 0 1 1.697-.36c.73.271 1.488.46 2.26.561A1.61 1.61 0 0 1 20 16.48Z"
			stroke="currentColor" stroke-width="1.5" stroke-linecap="round" stroke-linejoin="round" />
	</symbol>
    <symbol fill="none" viewBox="0 0 24 24" id="Televenda" xmlns="http://www.w3.org/2000/svg">
		<path
			d="M20 15.98v2.408a1.604 1.604 0 0 1-1.094 1.527 1.613 1.613 0 0 1-.66.079 15.941 15.941 0 0 1-6.943-2.465 15.672 15.672 0 0 1-4.827-4.818 15.868 15.868 0 0 1-2.47-6.96 1.603 1.603 0 0 1 .953-1.614c.204-.09.425-.137.648-.137h2.414A1.61 1.61 0 0 1 9.63 5.381c.102.77.29 1.528.563 2.256a1.602 1.602 0 0 1-.362 1.694l-1.022 1.02a12.86 12.86 0 0 0 4.827 4.817l1.022-1.02a1.61 1.61 0 0 1 1.697-.36c.73.271 1.488.46 2.26.561A1.61 1.61 0 0 1 20 15.98Z"
			stroke="currentColor" stroke-width="1.5" stroke-linecap="round" stroke-linejoin="round" />
	</symbol>
    <symbol id="ChevronRight" xmlns="http://www.w3.org/2000/svg" viewBox="0 0 32 32"
		fill="currentColor">
		<path fill-rule="evenodd" clip-rule="evenodd"
			d="M11.057 7.05721C11.5777 6.53651 12.4219 6.53651 12.9426 7.05721L20.9426 15.0572C21.4633 15.5779 21.4633 16.4221 20.9426 16.9428L12.9426 24.9428C12.4219 25.4635 11.5777 25.4635 11.057 24.9428C10.5363 24.4221 10.5363 23.5779 11.057 23.0572L18.1142 16L11.057 8.94283C10.5363 8.42213 10.5363 7.57791 11.057 7.05721Z" />
	</symbol>
    <symbol id="ChevronLeft" xmlns="http://www.w3.org/2000/svg" fill="none" viewBox="0 0 24 24"
    stroke="currentColor">
    <path stroke-linecap="round" stroke-linejoin="round" d="M15.75 19.5L8.25 12l7.5-7.5" />
    </symbol>
    <symbol fill="none" viewBox="0 0 24 25" id="ViewListSelected"
    xmlns="http://www.w3.org/2000/svg">
    <path
        d="M10.222 4.147H4v6.222h6.222V4.147ZM10.222 13.925H4v6.222h6.222v-6.222ZM20 4.146h-6.222v2H20v-2ZM17.228 8.369h-3.45v2h3.45v-2ZM20 13.925h-6.222v2H20v-2ZM17.228 18.147h-3.45v2h3.45v-2Z"
        fill="#FFF200" />
    <path
        d="M10.222 4.147H4v6.222h6.222V4.147ZM10.222 13.925H4v6.222h6.222v-6.222ZM20 4.146h-6.222v2H20v-2ZM17.228 8.369h-3.45v2h3.45v-2ZM20 13.925h-6.222v2H20v-2ZM17.228 18.147h-3.45v2h3.45v-2Z"
        stroke="#FFF200" stroke-width="1.5" stroke-linecap="round" stroke-linejoin="round" />
    </symbol>
    <symbol fill="none" viewBox="0 0 24 25" id="ViewList" xmlns="http://www.w3.org/2000/svg">
        <path
            d="M10.222 4.147H4v6.222h6.222V4.147ZM10.222 13.925H4v6.222h6.222v-6.222ZM20 4.146h-6.222v2H20v-2ZM17.228 8.369h-3.45v2h3.45v-2ZM20 13.925h-6.222v2H20v-2ZM17.228 18.147h-3.45v2h3.45v-2Z"
            fill="#393939" />
        <path
            d="M10.222 4.147H4v6.222h6.222V4.147ZM10.222 13.925H4v6.222h6.222v-6.222ZM20 4.146h-6.222v2H20v-2ZM17.228 8.369h-3.45v2h3.45v-2ZM20 13.925h-6.222v2H20v-2ZM17.228 18.147h-3.45v2h3.45v-2Z"
            stroke="#393939" stroke-width="1.5" stroke-linecap="round" stroke-linejoin="round" />
</symbol>
<symbol fill="none" viewBox="0 0 24 25" id="ViewGridSelected"
xmlns="http://www.w3.org/2000/svg">
<path
    d="M10.222 4.146H4v6.223h6.222V4.146ZM10.222 13.924H4v6.223h6.222v-6.223ZM20 13.924h-6.222v6.223H20v-6.223ZM20 4.146h-6.222v6.223H20V4.146Z"
    fill="#FFF200" />
<path
    d="M10.222 4.146H4v6.223h6.222V4.146ZM10.222 13.924H4v6.223h6.222v-6.223ZM20 13.924h-6.222v6.223H20v-6.223ZM20 4.146h-6.222v6.223H20V4.146Z"
    stroke="#FFF200" stroke-width="1.5" stroke-linecap="round" stroke-linejoin="round" />
</symbol>
<symbol fill="none" viewBox="0 0 24 25" id="ViewGrid" xmlns="http://www.w3.org/2000/svg">
    <path
        d="M10.222 4.146H4v6.223h6.222V4.146ZM10.222 13.924H4v6.223h6.222v-6.223ZM20 13.924h-6.222v6.223H20v-6.223ZM20 4.146h-6.222v6.223H20V4.146Z"
        fill="#393939" />
    <path
        d="M10.222 4.146H4v6.223h6.222V4.146ZM10.222 13.924H4v6.223h6.222v-6.223ZM20 13.924h-6.222v6.223H20v-6.223ZM20 4.146h-6.222v6.223H20V4.146Z"
        stroke="#393939" stroke-width="1.5" stroke-linecap="round" stroke-linejoin="round" />
</symbol>
</svg>